<svg width="290" height="211" viewBox="0 0 290 211" fill="none" xmlns="http://www.w3.org/2000/svg">
<path d="M51.4713 126.193C57.9813 115.892 81.4306 122.562 92.3415 127.185L134.473 104.322C162.965 40.4789 222.905 28.3849 249.313 30.3182C251.703 27.6673 258.011 22.5936 264.121 23.5059C271.758 24.6463 286.42 59.094 285.019 61.9854C283.898 64.2985 275.321 68.8067 271.172 70.7716C254.254 102.863 207.157 123.762 185.723 130.2C180.217 140.43 164.273 148.744 161.079 148.391C158.524 148.108 154.652 136.586 153.035 130.86C152.955 130.57 152.026 129.907 148.955 129.567C145.884 129.227 119.712 145.877 107.009 154.245C104.341 171.966 90.6602 190.235 85.3867 190.004C81.1678 189.82 73.3308 165.942 69.9397 154.027C64.261 149.159 55.2613 133.443 51.4713 126.193Z" fill="#29AEE3"/>
<path d="M92.3415 127.185C81.4306 122.562 57.9813 115.892 51.4713 126.193C55.2613 133.443 64.261 149.159 69.9397 154.027C73.3308 165.942 81.1678 189.82 85.3867 190.004C90.6602 190.235 104.341 171.966 107.009 154.245M92.3415 127.185L134.473 104.322C162.965 40.4789 222.905 28.3849 249.313 30.3182M92.3415 127.185C84.0648 131.676 73.5863 147.917 76.5107 154.754C78.8502 160.224 97.818 156.694 107.009 154.245M107.009 154.245C119.712 145.877 145.884 129.227 148.955 129.567C152.026 129.907 152.955 130.57 153.035 130.86M153.035 130.86C154.652 136.586 158.524 148.108 161.079 148.391C164.273 148.744 180.217 140.43 185.723 130.2M153.035 130.86C158.687 128.913 173.137 126.056 185.723 130.2M185.723 130.2C207.157 123.762 254.254 102.863 271.172 70.7716M271.172 70.7716C275.321 68.8067 283.898 64.2985 285.019 61.9854C286.42 59.094 271.758 24.6463 264.121 23.5059C258.011 22.5936 251.703 27.6673 249.313 30.3182M271.172 70.7716C271.899 64.2119 256.902 41.0695 249.313 30.3182" stroke="#383434" stroke-width="4" stroke-linejoin="round"/>
<path d="M129.408 66.5128C128.94 70.7457 140.477 82.3451 146.304 87.6157C161.493 61.2518 193.752 42.3936 207.983 36.26C195.182 30.9475 174.796 36.9678 167.155 40.0171C159.514 43.0663 129.994 61.2217 129.408 66.5128Z" fill="#29AEE3" stroke="#383434" stroke-width="4" stroke-linejoin="round"/>
<path d="M218.011 121.603C213.656 123.555 205.37 117.039 197.191 111.751C194.594 110.036 196.499 107.51 197.777 106.461C203.247 101.029 217.655 99.1666 224.174 98.9146C226.659 98.4593 231.571 98.516 231.337 102.385C231.045 107.222 222.366 119.651 218.011 121.603Z" fill="#29AEE3" stroke="#383434" stroke-width="4"/>
<circle cx="229.637" cy="54.2252" r="7.27649" transform="rotate(6.31755 229.637 54.2252)" stroke="#383434" stroke-width="4"/>
<path opacity="0.1" d="M179.453 96.5782C184.362 104.577 189.552 110.319 189.552 110.319C183.838 113.826 175.225 110.185 170.316 102.185C165.407 94.1862 166.06 84.8584 171.775 81.3513C171.775 81.3513 174.544 88.579 179.453 96.5782Z" fill="#383434"/>
<path opacity="0.1" d="M166.19 104.368C170.186 110.879 174.411 115.553 174.411 115.553C169.759 118.408 162.748 115.444 158.752 108.932C154.756 102.42 155.287 94.8272 159.94 91.9722C159.94 91.9722 162.194 97.8559 166.19 104.368Z" fill="#383434"/>
<path opacity="0.1" d="M152.142 111.377C155.068 116.145 158.161 119.568 158.161 119.568C154.755 121.658 149.622 119.487 146.695 114.719C143.769 109.951 144.159 104.391 147.565 102.301C147.565 102.301 149.215 106.609 152.142 111.377Z" fill="#383434"/>
<path opacity="0.1" d="M225.177 78.8841C233.658 83.776 241.275 86.4579 241.275 86.4579C237.78 92.5173 228.071 93.4638 219.589 88.5719C211.108 83.6801 207.065 74.8023 210.56 68.7429C210.56 68.7429 216.695 73.9922 225.177 78.8841Z" fill="#383434"/>
</svg>
