<svg width="302" height="247" viewBox="0 0 302 247" fill="none" xmlns="http://www.w3.org/2000/svg">
<path d="M270.44 82.511C274.376 78.2748 273.175 73.7802 272.399 72.1031L243.047 50.0137C236.627 36.7633 227.737 33.906 224.094 34.1337C224.604 24.9698 225.318 6.26652 224.094 4.76386C222.564 2.88552 216.239 2.03181 212.483 4.76386C209.477 6.94949 200.302 26.051 196.09 35.3285C188.406 37.8898 165.867 77.846 160.856 79.7243C159.067 80.3951 145.006 81.0228 127.115 81.5527V65.04C127.115 63.1617 85.101 62.9909 85.101 65.8937V82.5353C75.4127 82.718 66.3306 82.8649 58.9758 82.9686C45.2017 86.0423 18.3707 101.444 21.2394 138.464C22.2639 148.993 21.0345 173.229 7.92062 185.933C4.84854 191.283 -0.117889 203.826 4.59314 211.203C4.43045 223.824 5.13947 240.192 5.70084 241.427C6.5546 243.306 37.8024 241.94 41.559 241.427C44.5642 241.018 42.1008 232.3 40.4935 227.992C23.1049 219.901 35.2243 206.518 43.4575 200.838C45.5523 200.361 47.5992 199.718 49.5958 198.931C48.1896 205.109 63.4264 239.125 64.8383 241.427C65.9678 243.27 89.5929 240.66 101.264 239.125C101.716 230.926 100.646 223.637 95.1076 223.637C89.5689 223.637 80.6943 200.838 87.8201 192.754C93.5206 186.287 100.196 162.763 102.821 151.81C119.015 161.118 146.939 166.926 160.856 168.867C162.019 193.238 165.171 242.212 168.478 243.142C172.611 244.305 200.384 244.047 203.484 243.142C206.584 242.238 206.714 224.025 203.484 223.637C200.901 223.327 198.446 222.302 197.542 221.829C194.485 211.796 191.006 187.623 201.547 171.192C214.722 150.653 217.787 134.919 217.787 125.123C217.787 115.327 219.256 95.7355 225.624 92.7968C231.991 89.858 255.746 94.2661 258.685 93.8988C261.623 93.5314 265.663 87.6525 270.44 82.511Z" fill="#C2934C"/>
<path d="M201.547 171.192C214.722 150.653 217.787 134.919 217.787 125.123C217.787 115.327 219.256 95.7355 225.624 92.7968C231.991 89.858 255.746 94.2661 258.685 93.8988C261.623 93.5315 265.663 87.6525 270.44 82.511C274.376 78.2748 273.175 73.7802 272.399 72.1031L243.047 50.0137C236.627 36.7633 227.737 33.906 224.094 34.1337M201.547 171.192C191.006 187.623 194.485 211.796 197.542 221.829C198.446 222.302 200.901 223.327 203.484 223.637C206.714 224.025 206.584 242.238 203.484 243.142C200.384 244.047 172.611 244.305 168.478 243.142C165.171 242.212 162.019 193.238 160.856 168.867M201.547 171.192C206.043 152.072 208.465 112.601 192.253 98.1833C179.714 87.0322 172.874 85.8423 168.478 85.8423M160.856 168.867C146.939 166.926 119.015 161.118 102.821 151.81M160.856 168.867C160.856 164.523 160.856 155.03 160.856 151.81M58.9758 82.9686C22.8439 95.4335 32.5091 145.293 32.3383 155.88C32.1675 166.467 7.74988 191.738 5.70084 197.202C4.99909 199.074 4.67788 204.63 4.59314 211.203M58.9758 82.9686C66.3306 82.8649 75.4127 82.718 85.101 82.5353M58.9758 82.9686C45.2017 86.0423 18.3707 101.444 21.2394 138.464C22.2639 148.993 21.0345 173.229 7.92063 185.933C4.84854 191.283 -0.117882 203.826 4.59314 211.203M224.094 34.1337C224.604 24.9698 225.318 6.26652 224.094 4.76386C222.564 2.88552 216.239 2.03181 212.483 4.76386C209.477 6.94949 200.302 26.051 196.09 35.3285C188.406 37.8898 165.867 77.846 160.856 79.7243C159.067 80.3951 145.006 81.0228 127.115 81.5527M224.094 34.1337V47.1109M127.115 81.5527C127.115 76.6745 127.115 66.5426 127.115 65.04C127.115 63.1617 85.101 62.9909 85.101 65.8937C85.101 68.216 85.101 77.9557 85.101 82.5353M127.115 81.5527C114.057 81.9394 98.9589 82.274 85.101 82.5353M4.59314 211.203C4.43046 223.824 5.13947 240.192 5.70084 241.427C6.5546 243.306 37.8024 241.94 41.559 241.427C44.5642 241.018 42.1008 232.3 40.4934 227.992C23.1049 219.901 35.2243 206.518 43.4575 200.838C45.5523 200.361 47.5992 199.718 49.5958 198.931M102.821 151.81C99.7791 150.061 97.1511 148.189 95.1076 146.196C89.4729 160.651 72.992 189.709 49.5958 198.931M102.821 151.81C100.196 162.763 93.5206 186.287 87.8201 192.754C80.6943 200.838 89.5689 223.637 95.1076 223.637C100.646 223.637 101.716 230.926 101.264 239.125C89.5929 240.66 65.9678 243.27 64.8383 241.427C63.4264 239.125 48.1896 205.109 49.5958 198.931" stroke="#383434" stroke-width="4.20506" stroke-linecap="round" stroke-linejoin="round"/>
<ellipse cx="3.45837" cy="4.7589" rx="3.45837" ry="4.7589" transform="matrix(-0.810622 0.58557 0.58557 0.810622 238.742 47.87)" fill="#383434"/>
<circle cx="1.7382" cy="1.7382" r="1.7382" transform="matrix(-1 0 0 1 239.248 50.605)" fill="white"/>
<path d="M266.938 70.0032C265.768 71.8753 262.445 75.3387 270.308 81.3766C271.993 78.2406 274.127 71.0139 266.938 70.0032Z" fill="#383434"/>
</svg>
