<svg width="102" height="45" viewBox="0 0 102 45" fill="none" xmlns="http://www.w3.org/2000/svg">
<path d="M43.2274 10.5778C40.4442 10.4038 35.1093 15.1441 32.7898 17.5361C26.7737 15.2166 16.6551 13.2742 24.3093 24.0597C33.877 37.5416 39.7307 44.2398 51.9253 44.2398C67.18 44.2398 79.9762 24.0597 80.846 21.6677C81.5418 19.7542 76.9319 18.9859 74.54 18.8409C71.1333 16.0865 63.5371 10.5778 60.4058 10.5778C56.4917 10.5778 53.8823 14.4919 51.9253 14.4919C49.9683 14.4919 46.7065 10.7953 43.2274 10.5778Z" fill="#E22525"/>
<path d="M52.7104 36.5911C43.8511 37.8567 27.3978 23.4075 20.2786 16.0248C39.2243 22.0125 68.6341 20.2119 82.769 16.0248C79.6049 22.353 63.7846 35.0092 52.7104 36.5911Z" fill="white" stroke="#383434" stroke-width="4.24724" stroke-linejoin="round"/>
</svg>
