<svg width="102" height="46" viewBox="0 0 102 46" fill="none" xmlns="http://www.w3.org/2000/svg">
<path d="M82.4757 7.98572L21.8088 17.9312C21.8088 17.9312 27.3753 35.0143 34.8546 40.8065C42.3339 46.5987 74.9737 40.0974 78.7247 33.6944C82.4757 27.2914 82.4757 15.5713 82.4757 7.98572Z" fill="#383434"/>
<path d="M83.5343 17.2656L25.3664 25.9679L21.7034 17.2656L81.2434 9.02234L83.5343 17.2656Z" fill="white"/>
<path d="M45.6155 41.8003C48.2243 33.1782 57.6156 19.8903 74.3099 35.7148C70.8317 38.8298 60.2235 44.408 45.6155 41.8003Z" fill="#E22525"/>
<path d="M78.7247 33.6944C82.4757 27.2914 82.4757 15.5713 82.4757 7.98572C82.4757 7.98572 64.1265 12.9069 52.178 14.8497C40.2295 16.7924 21.8088 17.9312 21.8088 17.9312C21.8088 17.9312 27.3753 35.0144 34.8546 40.8065C42.3339 46.5987 74.9737 40.0974 78.7247 33.6944Z" stroke="#383434" stroke-width="5.15392"/>
<path d="M83.2587 9.39111C82.3613 9.35248 81.6426 8.6338 81.604 7.73642L81.3829 2.5989C81.315 1.02228 83.2199 0.184784 84.3358 1.30065L89.6945 6.65934C90.8103 7.77521 89.9728 9.68014 88.3962 9.61227L83.2587 9.39111Z" fill="#383434"/>
<path d="M22.0036 16.9309C22.0573 17.8275 21.4162 18.6162 20.5275 18.7468L15.4399 19.4943C13.8786 19.7237 12.8499 17.9148 13.8453 16.6903L18.6254 10.8097C19.6208 9.58514 21.6016 10.2226 21.696 11.7979L22.0036 16.9309Z" fill="#383434"/>
</svg>
