<svg width="102" height="56" viewBox="0 0 102 56" fill="none" xmlns="http://www.w3.org/2000/svg">
<path d="M73.5636 31.3811L73.5192 31.4128L73.477 31.4473C72.8802 31.9354 71.8621 32.4524 70.3884 32.9378C68.9403 33.4147 67.1636 33.8255 65.1435 34.1602C61.1045 34.8294 56.2148 35.1747 51.2848 35.181C46.355 35.1873 41.4387 34.8546 37.3467 34.1882C35.3003 33.855 33.4893 33.443 31.9996 32.9604C30.539 32.4873 29.4849 31.977 28.8213 31.4778C27.3864 30.0537 25.9612 27.5409 24.909 24.4082C23.9492 21.5505 23.3471 18.3158 23.3008 15.1926C34.0887 18.3599 42.7448 19.8583 51.3326 19.7961C59.8982 19.7341 68.3002 18.1199 78.5762 15.1789C78.4823 18.1184 77.8182 21.6378 76.8616 24.7357C76.3318 26.4518 75.727 27.9897 75.1104 29.1914C74.463 30.4532 73.9067 31.1355 73.5636 31.3811Z" fill="white" stroke="#383434" stroke-width="3.39227"/>
<path d="M78.1682 21.682C76.7198 23.3203 67.7834 25.8087 61.5287 26.9869C61.2139 27.0462 61.2392 27.4278 61.5595 27.4215C66.8338 27.317 74.6063 25.8978 74.6063 27.3612C76.2346 25.6421 77.9985 23.0123 78.1682 21.682Z" fill="#383434"/>
<path d="M23.7813 21.682C25.2265 23.3168 33.1918 25.7979 39.2341 26.9791C39.5485 27.0406 39.5228 27.4275 39.2025 27.4202C34.1712 27.3062 27.3432 25.9034 27.3432 27.3612C25.7149 25.6421 23.951 23.0123 23.7813 21.682Z" fill="#383434"/>
<path d="M20.1265 12.901C20.2504 12.2332 20.9229 11.7816 21.665 11.8678L25.6142 12.3265C26.8938 12.4751 27.3559 13.9724 26.334 14.6588L21.7259 17.7535C20.704 18.4398 19.2542 17.6058 19.4677 16.4544L20.1265 12.901Z" fill="#383434"/>
<path d="M80.2715 11.4473C80.9852 11.3649 81.6368 11.7819 81.7889 12.4183L82.5835 15.7442C82.8597 16.9003 81.4159 17.8004 80.3645 17.1276L75.8399 14.2323C74.7885 13.5595 75.245 12.0276 76.5415 11.8779L80.2715 11.4473Z" fill="#383434"/>
<path fill-rule="evenodd" clip-rule="evenodd" d="M16.1707 41.1846C16.1707 44.9354 22.2301 52.7026 27.1165 53.4006C32.0029 54.0987 60.566 53.6915 75.3997 53.4006C79.4718 51.3646 85.1042 45.2703 85.1042 41.1846V12.8993C76.7319 10.678 57.9692 6.35693 57.9692 6.35693C53.008 9.20482 50.3288 9.8746 44.0973 6.35693L16.1707 12.8993V41.1846ZM25.0107 23.5275L29.0022 39.6953L42.6145 42.1847C48.6515 38.9824 56.6091 38.9824 62.6557 42.1847L74.1099 39.6953C75.5489 33.3243 77.6258 21.786 77.6258 21.786C76.0734 17.3675 64.0014 18.0435 56.2901 18.4754C54.4214 18.58 52.8088 18.6704 51.6641 18.6704C50.7891 18.6704 49.6153 18.6287 48.2463 18.5801C40.4329 18.3029 26.2622 17.8002 25.0107 23.5275Z" fill="#6A4C1E"/>
<path d="M75.3997 53.4006L75.4382 55.3603C75.7294 55.3546 76.0157 55.284 76.2763 55.1537L75.3997 53.4006ZM85.1042 12.8993H87.0643C87.0643 12.0104 86.4661 11.2328 85.6069 11.0048L85.1042 12.8993ZM57.9692 6.35693L58.4091 4.44691C57.9276 4.33602 57.422 4.41108 56.9935 4.65706L57.9692 6.35693ZM44.0973 6.35693L45.0608 4.65008C44.6325 4.40833 44.129 4.33641 43.6502 4.44858L44.0973 6.35693ZM16.1707 12.8993L15.7236 10.9909C14.8373 11.1986 14.2106 11.989 14.2106 12.8993H16.1707ZM29.0022 39.6953L27.0993 40.1651C27.2841 40.9139 27.8909 41.4846 28.6496 41.6234L29.0022 39.6953ZM25.0107 23.5275L23.0958 23.109C23.0318 23.4021 23.0359 23.706 23.1078 23.9973L25.0107 23.5275ZM42.6145 42.1847L42.2619 44.1127C42.6957 44.1921 43.1435 44.1228 43.533 43.9162L42.6145 42.1847ZM62.6557 42.1847L61.7383 43.9168C62.1473 44.1334 62.6197 44.1983 63.0719 44.1L62.6557 42.1847ZM74.1099 39.6953L74.5262 41.6106C75.2707 41.4488 75.8539 40.8703 76.0218 40.1271L74.1099 39.6953ZM77.6258 21.786L79.5548 22.1332C79.6149 21.7996 79.5874 21.4561 79.475 21.1363L77.6258 21.786ZM56.2901 18.4754L56.1805 16.5184L56.1805 16.5184L56.2901 18.4754ZM48.2463 18.5801L48.3158 16.6214L48.3158 16.6214L48.2463 18.5801ZM27.3937 51.4603C26.5914 51.3457 25.5889 50.9089 24.4741 50.1229C23.378 49.3501 22.2814 48.3159 21.3039 47.1671C20.3266 46.0187 19.5066 44.8009 18.9407 43.6887C18.3517 42.5312 18.1307 41.6692 18.1307 41.1846H14.2106C14.2106 42.5754 14.747 44.0909 15.4469 45.4664C16.1699 46.8873 17.1701 48.3581 18.3185 49.7076C19.4666 51.0568 20.801 52.3296 22.2154 53.3268C23.611 54.3107 25.1984 55.1065 26.8393 55.3409L27.3937 51.4603ZM75.3613 51.441C67.949 51.5863 57.1101 51.7606 47.5175 51.8115C42.7201 51.8369 38.2434 51.8314 34.6664 51.7762C31.0331 51.7202 28.4672 51.6137 27.3937 51.4603L26.8393 55.3409C28.209 55.5366 31.0458 55.6409 34.606 55.6958C38.2224 55.7516 42.7298 55.7569 47.5382 55.7315C57.1572 55.6805 68.0167 55.5058 75.4382 55.3603L75.3613 51.441ZM83.1442 41.1846C83.1442 41.7847 82.9273 42.6193 82.4091 43.6508C81.9014 44.6614 81.1635 45.7437 80.2764 46.8027C78.4798 48.9476 76.2556 50.7813 74.5232 51.6475L76.2763 55.1537C78.6159 53.9839 81.2439 51.7525 83.2816 49.3198C84.3117 48.09 85.2363 46.7554 85.912 45.4106C86.5771 44.0866 87.0643 42.6274 87.0643 41.1846H83.1442ZM83.1442 12.8993V41.1846H87.0643V12.8993H83.1442ZM57.9692 6.35693C57.5294 8.26696 57.5294 8.26697 57.5295 8.267C57.5297 8.26703 57.5299 8.26708 57.5302 8.26714C57.5307 8.26727 57.5315 8.26746 57.5327 8.26772C57.5349 8.26824 57.5383 8.26901 57.5428 8.27005C57.5517 8.27212 57.5652 8.27521 57.583 8.27932C57.6186 8.28753 57.6716 8.29976 57.7412 8.31581C57.8803 8.34793 58.0856 8.39535 58.35 8.45651C58.8786 8.57884 59.6434 8.75612 60.5874 8.97581C62.4756 9.41522 65.0801 10.0242 67.9457 10.7024C73.6853 12.0609 80.4445 13.6908 84.6016 14.7938L85.6069 11.0048C81.3916 9.88642 74.5834 8.24514 68.8485 6.88778C65.9769 6.20811 63.3675 5.59799 61.476 5.15779C60.5302 4.93768 59.7637 4.76003 59.2336 4.63737C58.9686 4.57604 58.7626 4.52846 58.6228 4.49619C58.5529 4.48006 58.4996 4.46776 58.4636 4.45948C58.4457 4.45534 58.4321 4.4522 58.423 4.4501C58.4184 4.44905 58.415 4.44825 58.4126 4.44772C58.4115 4.44746 58.4106 4.44725 58.41 4.44712C58.4097 4.44705 58.4095 4.447 58.4093 4.44696C58.4092 4.44693 58.4091 4.44691 57.9692 6.35693ZM43.1338 8.06378C46.3683 9.88968 48.9805 10.808 51.5889 10.7024C54.1725 10.5979 56.4432 9.49291 58.945 8.05681L56.9935 4.65706C54.534 6.06885 52.9845 6.72271 51.4304 6.7856C49.9009 6.84749 48.0578 6.34186 45.0608 4.65008L43.1338 8.06378ZM16.6177 14.8076L44.5444 8.26529L43.6502 4.44858L15.7236 10.9909L16.6177 14.8076ZM18.1307 41.1846V12.8993H14.2106V41.1846H18.1307ZM30.905 39.2255L26.9136 23.0577L23.1078 23.9973L27.0993 40.1651L30.905 39.2255ZM42.9671 40.2567L29.3548 37.7673L28.6496 41.6234L42.2619 44.1127L42.9671 40.2567ZM63.573 40.4526C56.9531 36.9466 48.3079 36.9459 41.6961 40.4532L43.533 43.9162C48.9951 41.0188 56.2651 41.0181 61.7383 43.9168L63.573 40.4526ZM73.6937 37.78L62.2394 40.2694L63.0719 44.1L74.5262 41.6106L73.6937 37.78ZM77.6258 21.786C75.6968 21.4387 75.6968 21.4388 75.6968 21.4388C75.6968 21.4389 75.6968 21.439 75.6967 21.4392C75.6967 21.4395 75.6966 21.44 75.6965 21.4407C75.6962 21.442 75.6958 21.444 75.6954 21.4468C75.6944 21.4522 75.6929 21.4604 75.6909 21.4713C75.687 21.493 75.6811 21.5256 75.6734 21.5683C75.6579 21.6539 75.635 21.7803 75.6053 21.9437C75.5459 22.2705 75.4594 22.7448 75.3511 23.3339C75.1344 24.5124 74.8306 26.15 74.4819 27.9858C73.783 31.6655 72.9094 36.1138 72.1981 39.2635L76.0218 40.1271C76.7494 36.9058 77.6337 32.3995 78.3331 28.7172C78.6835 26.8721 78.9888 25.2269 79.2065 24.0428C79.3154 23.4507 79.4024 22.9738 79.4622 22.6447C79.4921 22.4801 79.5152 22.3525 79.5309 22.2659C79.5387 22.2226 79.5447 22.1895 79.5487 22.1673C79.5507 22.1561 79.5522 22.1477 79.5533 22.142C79.5538 22.1391 79.5542 22.137 79.5544 22.1355C79.5546 22.1348 79.5547 22.1342 79.5547 22.1338C79.5548 22.1336 79.5548 22.1335 79.5548 22.1334C79.5548 22.1333 79.5548 22.1332 77.6258 21.786ZM56.3997 20.4324C60.2865 20.2147 65.094 19.9488 69.1135 20.2658C71.1297 20.4248 72.8144 20.7222 74.0336 21.1792C75.294 21.6517 75.6739 22.1434 75.7766 22.4357L79.475 21.1363C78.8015 19.2192 77.0903 18.1386 75.4095 17.5086C73.6876 16.8631 71.5814 16.5282 69.4216 16.3578C65.0891 16.0162 60.0049 16.3043 56.1805 16.5184L56.3997 20.4324ZM51.6641 20.6304C52.8771 20.6304 54.5554 20.5356 56.3997 20.4324L56.1805 16.5184C54.2874 16.6245 52.7406 16.7103 51.6641 16.7103V20.6304ZM48.1768 20.5389C49.5314 20.587 50.7461 20.6304 51.6641 20.6304V16.7103C50.8321 16.7103 49.6992 16.6704 48.3158 16.6214L48.1768 20.5389ZM26.9255 23.9459C27.0522 23.366 27.5374 22.7067 28.8947 22.0775C30.2462 21.4512 32.1414 21.0167 34.3991 20.7484C38.898 20.2139 44.2385 20.3992 48.1768 20.5389L48.3158 16.6214C44.4407 16.4839 38.7892 16.2792 33.9366 16.8558C31.5185 17.1431 29.148 17.6395 27.2462 18.521C25.3504 19.3997 23.5949 20.8253 23.0958 23.109L26.9255 23.9459Z" fill="#3B2607"/>
</svg>
