<svg width="258" height="225" viewBox="0 0 258 225" fill="none" xmlns="http://www.w3.org/2000/svg">
<path d="M27.4358 151.469C24.4569 167.55 33.5363 179 52.4613 179C53.7035 168.325 51.0006 163 56.8317 157.813C67.2087 148.582 54.5447 145.638 59.9177 135.613C69.1243 128.527 67.4418 120.577 67.2087 114.53C83.9525 114.53 84.969 100.722 84.2696 98.351C90.984 102.05 108.419 103.725 114.206 95.159C117.522 103.523 134.313 103.121 138.966 97.0821C147.639 100.781 155.027 100.73 161.557 95.159C163.46 102.919 178.791 112.488 187.095 107.866C184.421 120.19 188.182 128.672 195.999 134.03C202.805 142.845 191.554 149.344 199.719 157.813C203.769 162.014 205.299 167.331 205.299 176.514C229.36 172.535 228.615 150.761 225.934 143.766C232.092 134.03 239.598 127.221 235.162 110.525C232.64 101.033 227.622 92.2031 214.082 89.1764C219.583 81.8499 221.408 70.5991 214.082 59.9565C206.277 48.6175 189.067 51.8816 186.037 55.3201C188.601 51.2888 190.189 35.5007 173.79 29.5179C155.421 22.8161 149.297 34.0873 145.121 39.3134C120.519 2.10161 79.9137 23.7299 72.7322 43.2261C49.6339 39.3134 37.2647 55.3201 39.1604 74.1921C14.8653 83.1317 17.696 106.317 24.4569 116.87C11.6488 128.132 15.5209 147.989 27.4358 151.469Z" fill="#583F3F"/>
<path d="M27.4358 151.469C24.4569 167.55 33.5363 179 52.4613 179C53.7035 168.325 51.0006 163 56.8317 157.813C67.2087 148.582 54.5447 145.638 59.9177 135.613C69.1243 128.527 67.4418 120.577 67.2087 114.53C83.9525 114.53 84.969 100.722 84.2696 98.351M27.4358 151.469C15.5209 147.989 11.6488 128.132 24.4569 116.87M27.4358 151.469C30.6663 150.206 35.0776 149.237 39.1604 151.469M24.4569 116.87C17.696 106.317 14.8653 83.1317 39.1604 74.1921M24.4569 116.87C26.3035 114.793 34.2861 116.87 39.1604 121.612M39.1604 74.1921C37.2647 55.3201 49.6339 39.3134 72.7322 43.2261M39.1604 74.1921C43.2401 72.691 52.099 77.02 54.8972 85.0817M72.7322 43.2261C79.9137 23.7299 120.519 2.10161 145.121 39.3134M72.7322 43.2261C72.324 47.8503 74.8695 57.0986 84.2696 57.0986M145.121 39.3134C149.297 34.0873 155.421 22.8161 173.79 29.5179C190.189 35.5007 188.601 51.2888 186.037 55.3201M145.121 39.3134C145.121 41.4007 147.367 51.6361 137.761 55.3201M186.037 55.3201C189.067 51.8816 206.277 48.6175 214.082 59.9565C221.408 70.5991 219.583 81.8499 214.082 89.1764M186.037 55.3201C183.665 58.0106 180.61 59.5005 178.48 67.7752M214.082 89.1764C227.622 92.2031 232.64 101.033 235.162 110.525C239.598 127.221 232.092 134.03 225.934 143.766M214.082 89.1764C214.082 89.1764 205.299 92.8501 205.299 98.351M225.934 143.766C228.615 150.761 229.36 172.535 205.299 176.514C205.299 167.331 203.769 162.014 199.719 157.813C191.554 149.344 202.805 142.845 195.999 134.03C188.182 128.672 184.421 120.19 187.095 107.866C178.791 112.488 163.46 102.919 161.557 95.159M225.934 143.766C225.09 141.564 220.749 139.414 215.435 143.766M161.557 95.159C155.027 100.73 147.639 100.781 138.966 97.0821C134.313 103.121 117.522 103.523 114.206 95.159C108.419 103.725 90.984 102.05 84.2696 98.351M161.557 95.159C162.003 94.7789 162.635 93.841 162.979 92.8501M84.2696 98.351C83.0867 97.7474 80.5594 95.8021 79.9137 92.8501" stroke="#383434" stroke-width="7" stroke-linecap="round" stroke-linejoin="round"/>
</svg>
