<svg width="158" height="38" viewBox="0 0 158 38" fill="none" xmlns="http://www.w3.org/2000/svg">
<path fill-rule="evenodd" clip-rule="evenodd" d="M127.654 10.6941C127.009 13.8182 125.874 17.7965 124.374 21.3662C123.456 23.5503 122.445 25.478 121.393 26.936C120.301 28.4506 119.387 29.1485 118.774 29.3739C113.292 31.3883 106.277 32.6028 95.475 31.6497C94.3937 31.5543 93.2649 30.9491 92.0959 29.5488C90.9122 28.1309 89.8634 26.0908 89.0189 23.6525C87.5066 19.2856 86.8497 14.2359 86.9325 10.6714C92.1544 6.71583 100.504 5.52288 109.075 6.16232C113.524 6.49421 117.827 7.30694 121.431 8.34212C124.024 9.08721 126.138 9.91382 127.654 10.6941ZM131.544 5.99067C129.349 4.68989 126.377 3.52031 123.087 2.57534C119.094 1.42816 114.385 0.541799 109.522 0.178944C101.008 -0.456206 91.3327 0.46791 84.3689 5.13313C84.2241 5.07338 84.0695 5.01464 83.9047 4.95771C82.8157 4.58156 81.3032 4.29238 79.2285 4.29243C77.1538 4.29248 75.6414 4.58166 74.5524 4.95775C74.2772 5.05282 74.0305 5.15293 73.8103 5.25436C66.8339 0.483925 57.0651 -0.46167 48.4784 0.178944C43.6147 0.541799 38.9063 1.42816 34.9128 2.57534C31.6077 3.52476 28.6226 4.7009 26.4253 6.00903L5.00901 1.57096C3.38663 1.23476 1.79888 2.27741 1.46267 3.8998C1.12647 5.52218 2.16912 7.10993 3.79151 7.44614L24.4322 11.7235C25.1471 15.2464 26.4088 19.6778 28.0947 23.6903C29.1132 26.1144 30.3292 28.489 31.7401 30.4454C33.1101 32.3453 34.8937 34.1741 37.1567 35.0057C43.5974 37.3724 51.5182 38.6442 63.0525 37.6265C66.2083 37.348 68.6808 35.5852 70.5101 33.394C72.3246 31.2205 73.6708 28.4456 74.6507 25.6161C76.3897 20.5948 77.1716 14.8182 77.0644 10.4809C77.532 10.3832 78.234 10.2925 79.2286 10.2924C79.9415 10.2924 80.5041 10.339 80.9377 10.4014C80.8189 14.7474 81.5997 20.5641 83.3493 25.616C84.3293 28.4456 85.6755 31.2205 87.49 33.394C89.3192 35.5852 91.7918 37.348 94.9476 37.6265C106.482 38.6442 114.403 37.3724 120.843 35.0057C123.106 34.1741 124.89 32.3453 126.26 30.4454C127.671 28.489 128.887 26.1144 129.905 23.6903C131.598 19.6618 132.863 15.211 133.576 11.6814L153.768 7.08188C155.383 6.71388 156.394 5.10596 156.026 3.49049C155.658 1.87502 154.05 0.863747 152.435 1.23175L131.544 5.99067ZM30.3458 10.6941C30.9908 13.8182 32.1265 17.7965 33.6263 21.3662C34.544 23.5503 35.5552 25.478 36.6066 26.936C37.6989 28.4506 38.6127 29.1485 39.2261 29.3739C44.7082 31.3883 51.7233 32.6028 62.5251 31.6497C63.6063 31.5543 64.7351 30.9491 65.9041 29.5488C67.0879 28.1309 68.1367 26.0908 68.9811 23.6525C70.4935 19.2856 71.1503 14.2359 71.0676 10.6714C65.8456 6.71583 57.4958 5.52288 48.9248 6.16232C44.476 6.49421 40.173 7.30694 36.5694 8.34212C33.9756 9.08721 31.8624 9.91382 30.3458 10.6941Z" fill="#383434"/>
</svg>
