<svg width="91" height="28" viewBox="0 0 91 28" fill="none" xmlns="http://www.w3.org/2000/svg">
<ellipse cx="22.9" cy="13.6693" rx="9.30967" ry="11.5" fill="#383434"/>
<ellipse cx="23.1673" cy="8.8601" rx="3.95349" ry="3.95349" fill="white"/>
<path d="M1.89252 4.84127C5.17848 7.33407 7.92373 7.47917 10.5558 6.72235M10.5558 6.72235C9.82427 6.88165 7.52809 5.80215 6.1898 3.91496M10.5558 6.72235C11.6005 6.42196 12.6274 5.97948 13.6632 5.48532M13.6632 5.48532C15.8872 4.42426 18.1523 3.12492 20.7232 2.48229C26.1508 1.12551 30.1144 5.48532 31.8552 7.53948C32.2433 7.99744 33.2011 8.99995 34.2353 9.46615C29.6885 9.46615 27.9201 3.36794 23.0077 3.36794C18.0954 3.36794 16.2846 7.12451 12.2565 7.87338C10.5198 8.19624 7.97972 7.42581 6.1898 6.94574M13.6632 5.48532C12.6856 5.67045 10.5558 4.84127 9.58131 3.36794" stroke="#383434" stroke-width="2.33195" stroke-linecap="round" stroke-linejoin="round"/>
<ellipse cx="9.30967" cy="11.5" rx="9.30967" ry="11.5" transform="matrix(-1 0 0 1 77.6299 1.67249)" fill="#383434"/>
<ellipse cx="3.95349" cy="3.95349" rx="3.95349" ry="3.95349" transform="matrix(-1 0 0 1 72.006 4.41003)" fill="white"/>
<path d="M89.3274 4.34469C86.0414 6.83749 83.2962 6.98258 80.6641 6.22577M80.6641 6.22577C81.3956 6.38507 83.6918 5.30557 85.0301 3.41838M80.6641 6.22577C79.6194 5.92538 78.5925 5.4829 77.5567 4.98874M77.5567 4.98874C75.3326 3.92768 73.0675 2.62834 70.4967 1.9857C65.0691 0.628932 61.1055 4.98874 59.3646 7.04289C58.9765 7.50086 58.0187 8.50337 56.9846 8.96957C61.5314 8.96957 63.2998 2.87136 68.2121 2.87136C73.1245 2.87136 74.9353 6.62793 78.9634 7.3768C80.7 7.69965 83.2402 6.92923 85.0301 6.44915M77.5567 4.98874C78.5343 5.17387 80.6641 4.34469 81.6386 2.87136" stroke="#383434" stroke-width="2.38162" stroke-linecap="round" stroke-linejoin="round"/>
</svg>
