<svg width="296" height="230" viewBox="0 0 296 216" fill="none" xmlns="http://www.w3.org/2000/svg">
<path d="M81.7439 2.98801H214.538C219.336 2.98801 223.47 6.36878 224.422 11.0716L262.681 200.063C263.946 206.31 259.171 212.148 252.797 212.148H43.4841C37.1107 212.148 32.3355 206.31 33.6001 200.063L71.8599 11.0716C72.8119 6.36879 76.9457 2.98801 81.7439 2.98801Z" fill="white" stroke="#383434" stroke-width="5.97601"/>
<path d="M255.5 29.928C245.25 15.3615 238.693 12 224.5 12L231.223 45.2416L241.477 96.7799L258.115 176.714C266.481 164.762 280.525 161.027 292.477 169.617C292.477 169.617 282.766 86.3267 280.525 77.7362C278.284 69.1456 264.437 42.6271 255.5 29.928Z" fill="#FFDD65" stroke="#383434" stroke-width="5.97601" stroke-linecap="round" stroke-linejoin="round"/>
<path d="M40.4766 29.928C50.7271 15.3615 57.2841 12 71.4771 12L64.7541 45.2416L54.5 96.7799L37.8621 176.714C29.4957 164.762 15.452 161.027 3.5 169.617C3.5 169.617 13.211 86.3267 15.452 77.7362C17.693 69.1456 31.5402 42.6271 40.4766 29.928Z" fill="#FFDD65" stroke="#383434" stroke-width="5.97601" stroke-linecap="round" stroke-linejoin="round"/>
<path fill-rule="evenodd" clip-rule="evenodd" d="M103.784 49.2611C103.784 48.5806 104.336 48.029 105.016 48.029H117.338C118.018 48.029 118.57 48.5806 118.57 49.2611V54.9289H128.427V49.2611C128.427 48.5806 128.978 48.029 129.659 48.029H141.98C142.661 48.029 143.212 48.5806 143.212 49.2611V54.9289H153.069V49.2611C153.069 48.5806 153.621 48.029 154.301 48.029H166.623C167.303 48.029 167.855 48.5806 167.855 49.2611V54.9289H177.712V49.2611C177.712 48.5806 178.264 48.029 178.944 48.029H191.265C191.946 48.029 192.497 48.5806 192.497 49.2611V54.9289L199.644 54.9289C200.188 54.9289 200.629 55.3702 200.629 55.9146V93.3712C200.629 93.9156 200.188 94.3569 199.644 94.3569H96.638C96.0936 94.3569 95.6523 93.9156 95.6523 93.3712V55.9146C95.6523 55.3702 96.0936 54.9289 96.638 54.9289L103.784 54.9289V49.2611Z" fill="#E22525"/>
</svg>
