<svg width="296" height="230" viewBox="20 0 296 216" fill="none" xmlns="http://www.w3.org/2000/svg">
<path d="M330.79 221.764H2.86619C-10.63 170.538 26.9956 -32.4647 107.922 5.7159C128.038 12.5292 155.666 37.8524 228.615 5.7157C302.264 -26.7289 352.831 134.084 330.79 221.764Z" fill="#E22525"/>
<path d="M103.744 9.98801H236.538C241.336 9.98801 245.47 13.3688 246.422 18.0716L284.681 207.063C285.946 213.31 281.171 219.148 274.797 219.148H65.4841C59.1107 219.148 54.3355 213.31 55.6001 207.063L93.8599 18.0716C94.8119 13.3688 98.9457 9.98801 103.744 9.98801Z" fill="#2D89DF" stroke="#383434" stroke-width="5.97601"/>
<path d="M277.5 36.928C267.25 22.3615 260.693 19 246.5 19L253.223 52.2416L263.477 103.78L280.115 183.714C288.481 171.762 302.525 168.027 314.477 176.617C314.477 176.617 304.766 93.3267 302.525 84.7362C300.284 76.1456 286.437 49.6271 277.5 36.928Z" fill="#2D89DF" stroke="#383434" stroke-width="5.97601" stroke-linecap="round" stroke-linejoin="round"/>
<path d="M62.4766 36.928C72.7271 22.3615 79.2841 19 93.4771 19L86.7541 52.2416L76.5 103.78L59.8621 183.714C51.4957 171.762 37.452 168.027 25.5 176.617C25.5 176.617 35.211 93.3267 37.452 84.7362C39.693 76.1456 53.5402 49.6271 62.4766 36.928Z" fill="#2D89DF" stroke="#383434" stroke-width="5.97601" stroke-linecap="round" stroke-linejoin="round"/>
<circle cx="170" cy="78.9819" r="34.2532" fill="#FFDD65"/>
<path fill-rule="evenodd" clip-rule="evenodd" d="M163.291 34.5156C163.291 34.2858 163.477 34.0996 163.707 34.0996H167.867C168.096 34.0996 168.283 34.2858 168.283 34.5156V36.4289H171.61V34.5156C171.61 34.2858 171.796 34.0996 172.026 34.0996H176.186C176.415 34.0996 176.602 34.2858 176.602 34.5156V36.4289H178.848C179.032 36.4289 179.18 36.5779 179.18 36.7617V49.4066C179.18 49.5904 179.032 49.7394 178.848 49.7394H161.128C160.944 49.7394 160.795 49.5904 160.795 49.4066V36.7617C160.795 36.5779 160.944 36.4289 161.128 36.4289H163.291V34.5156Z" fill="#E22525"/>
<path fill-rule="evenodd" clip-rule="evenodd" d="M154.099 47.4448C154.099 47.215 154.285 47.0288 154.515 47.0288H158.674C158.904 47.0288 159.09 47.215 159.09 47.4448V49.3581H162.418V47.4448C162.418 47.215 162.604 47.0288 162.834 47.0288H166.993C167.223 47.0288 167.409 47.215 167.409 47.4448V49.3581H169.655C169.839 49.3581 169.988 49.5071 169.988 49.6909V62.3358C169.988 62.5196 169.839 62.6686 169.655 62.6686H151.936C151.752 62.6686 151.603 62.5196 151.603 62.3358V49.6909C151.603 49.5071 151.752 49.3581 151.936 49.3581H154.099V47.4448Z" fill="#E22525"/>
<path fill-rule="evenodd" clip-rule="evenodd" d="M154.099 60.2275C154.099 59.9978 154.285 59.8115 154.515 59.8115H158.674C158.904 59.8115 159.09 59.9978 159.09 60.2275V62.1409H162.418V60.2275C162.418 59.9978 162.604 59.8115 162.834 59.8115H166.993C167.223 59.8115 167.409 59.9978 167.409 60.2275V62.1409H169.655C169.839 62.1409 169.988 62.2898 169.988 62.4736V75.1186C169.988 75.3023 169.839 75.4513 169.655 75.4513H151.936C151.752 75.4513 151.603 75.3023 151.603 75.1186V62.4736C151.603 62.2898 151.752 62.1409 151.936 62.1409H154.099V60.2275Z" fill="#E22525"/>
<path fill-rule="evenodd" clip-rule="evenodd" d="M163.291 72.1489C163.291 71.9191 163.477 71.7329 163.707 71.7329H167.867C168.096 71.7329 168.283 71.9191 168.283 72.1489V74.0622H171.61V72.1489C171.61 71.9191 171.796 71.7329 172.026 71.7329H176.186C176.415 71.7329 176.602 71.9191 176.602 72.1489V74.0622H178.848C179.032 74.0622 179.18 74.2112 179.18 74.395V87.0399C179.18 87.2237 179.032 87.3727 178.848 87.3727H161.128C160.944 87.3727 160.795 87.2237 160.795 87.0399V74.395C160.795 74.2112 160.944 74.0622 161.128 74.0622H163.291V72.1489Z" fill="#E22525"/>
<path fill-rule="evenodd" clip-rule="evenodd" d="M172.484 85.2094C172.484 84.9797 172.671 84.7935 172.9 84.7935H177.06C177.29 84.7935 177.476 84.9797 177.476 85.2094V87.1228H180.804V85.2094C180.804 84.9797 180.99 84.7935 181.219 84.7935H185.379C185.609 84.7935 185.795 84.9797 185.795 85.2094V87.1228H188.041C188.225 87.1228 188.374 87.2718 188.374 87.4555V100.1C188.374 100.284 188.225 100.433 188.041 100.433H170.322C170.138 100.433 169.989 100.284 169.989 100.1V87.4556C169.989 87.2718 170.138 87.1228 170.322 87.1228H172.484V85.2094Z" fill="#E22525"/>
<path fill-rule="evenodd" clip-rule="evenodd" d="M172.484 97.4365C172.484 97.2067 172.671 97.0205 172.9 97.0205H177.06C177.29 97.0205 177.476 97.2067 177.476 97.4365V99.3498H180.804V97.4365C180.804 97.2067 180.99 97.0205 181.219 97.0205H185.379C185.609 97.0205 185.795 97.2067 185.795 97.4365V99.3498H188.041C188.225 99.3498 188.374 99.4988 188.374 99.6826V112.328C188.374 112.511 188.225 112.66 188.041 112.66H170.322C170.138 112.66 169.989 112.511 169.989 112.328V99.6826C169.989 99.4988 170.138 99.3498 170.322 99.3498H172.484V97.4365Z" fill="#E22525"/>
<path fill-rule="evenodd" clip-rule="evenodd" d="M154.099 97.4365C154.099 97.2067 154.285 97.0205 154.515 97.0205H158.674C158.904 97.0205 159.09 97.2067 159.09 97.4365V99.3498H162.418V97.4365C162.418 97.2067 162.604 97.0205 162.834 97.0205H166.993C167.223 97.0205 167.409 97.2067 167.409 97.4365V99.3498H169.655C169.839 99.3498 169.988 99.4988 169.988 99.6826V112.328C169.988 112.511 169.839 112.66 169.655 112.66H151.936C151.752 112.66 151.603 112.511 151.603 112.328V99.6826C151.603 99.4988 151.752 99.3498 151.936 99.3498H154.099V97.4365Z" fill="#E22525"/>
<path fill-rule="evenodd" clip-rule="evenodd" d="M163.291 108.641C163.291 108.411 163.477 108.225 163.707 108.225H167.867C168.096 108.225 168.283 108.411 168.283 108.641V110.554H171.61V108.641C171.61 108.411 171.796 108.225 172.026 108.225H176.186C176.415 108.225 176.602 108.411 176.602 108.641V110.554H178.848C179.032 110.554 179.18 110.703 179.18 110.887V123.532C179.18 123.715 179.032 123.864 178.848 123.864H161.128C160.944 123.864 160.795 123.715 160.795 123.532V110.887C160.795 110.703 160.944 110.554 161.128 110.554H163.291V108.641Z" fill="#E22525"/>
<path fill-rule="evenodd" clip-rule="evenodd" d="M172.484 47.4448C172.484 47.215 172.671 47.0288 172.9 47.0288H177.06C177.29 47.0288 177.476 47.215 177.476 47.4448V49.3581H180.804V47.4448C180.804 47.215 180.99 47.0288 181.219 47.0288H185.379C185.609 47.0288 185.795 47.215 185.795 47.4448V49.3581H188.041C188.225 49.3581 188.374 49.5071 188.374 49.6909V62.3358C188.374 62.5196 188.225 62.6686 188.041 62.6686H170.322C170.138 62.6686 169.989 62.5196 169.989 62.3358V49.6909C169.989 49.5071 170.138 49.3581 170.322 49.3581H172.484V47.4448Z" fill="#E22525"/>
</svg>
