<svg width="158" height="187" viewBox="0 0 158 187" fill="none" xmlns="http://www.w3.org/2000/svg">
<rect x="50.2286" y="3.37143" width="57.5429" height="50.733" rx="7.16429" fill="#FFDD65" stroke="#383434" stroke-width="6.74286"/>
<path d="M40.5357 125.788H117.464C121.421 125.788 124.629 128.995 124.629 132.952V171.718C124.629 175.006 122.403 177.831 119.289 178.553C90.0576 185.329 70.2127 185.342 38.8263 178.463C35.652 177.767 33.3714 174.912 33.3714 171.585V132.952C33.3714 128.995 36.579 125.788 40.5357 125.788Z" fill="#FFDD65" stroke="#383434" stroke-width="6.74286"/>
<path d="M30 25.7646H128C142.43 25.7646 154.129 37.4628 154.129 51.8932V131.258C154.129 143.722 145.364 154.447 133.228 156.429C93.6798 162.889 64.4402 162.76 24.893 156.372C12.6997 154.403 3.87143 143.651 3.87143 131.144V51.8932C3.87143 37.4628 15.5696 25.7646 30 25.7646Z" fill="#FFDD65" stroke="#383434" stroke-width="6.74286"/>
<path d="M30 25.7646H128C142.43 25.7646 154.129 37.4628 154.129 51.8932V131.258C154.129 143.722 145.364 154.447 133.228 156.429C93.6798 162.889 64.4402 162.76 24.893 156.372C12.6997 154.403 3.87143 143.651 3.87143 131.144V51.8932C3.87143 37.4628 15.5696 25.7646 30 25.7646Z" stroke="#383434" stroke-width="6.74286"/>
</svg>
