<svg width="440" height="440" viewBox="0 0 440 440" fill="none" xmlns="http://www.w3.org/2000/svg">
<g clip-path="url(#clip0_1_416)">
<rect width="440" height="440" fill="#985CFA"/>
<path d="M195.239 17.0746L224.508 130.425L335.245 -19.2182L277.986 154.787L384.08 97.3418L317.156 199.3L384.08 209.213L335.245 256.267L569.551 298.502L329.126 315.836L422.245 367.709H299.857L422.245 525.652L252.498 402.916V599.895L195.239 415.369L137.98 481.676V402.916L45.8766 481.676L90.6211 367.709L-77.3143 439.78L61.3519 315.836L-60.2353 298.502L55.2329 256.267L-134.957 154.787L73.3223 199.3L27.2942 117.414L112.492 154.787L55.2329 -19.2183L165.97 130.425L195.239 17.0746Z" fill="#383434"/>
<path d="M191.417 109.588L217.297 9.36203L243.178 109.588L245.013 116.696L249.38 110.795L347.182 -21.3678L296.72 131.982L293.967 140.347L301.711 136.154L395.59 85.3218L336.288 175.668L333.282 180.248L338.701 181.051L398.583 189.921L354.875 232.035L349.945 236.785L356.683 238L563.611 275.3L350.933 290.633L339.239 291.477L349.481 297.182L430.829 342.497H321.915H314.775L319.149 348.141L426.623 486.837L276.608 378.368L271.057 374.354V381.204V555.094L220.64 392.62L218.771 386.596L214.648 391.37L163.538 450.557V381.204V373.606L157.764 378.544L76.3175 448.191L115.938 347.276L119 339.476L111.299 342.781L-36.9565 406.406L85.743 296.734L91.3512 291.721L83.9045 290.659L-23.8906 275.292L78.4939 237.842L85.8465 235.153L78.9392 231.467L-89.3055 141.697L94.6494 181.011L102.231 182.631L98.4319 175.874L57.5332 103.113L133.145 136.281L140.327 139.432L137.875 131.982L87.4133 -21.3679L185.215 110.795L189.582 116.696L191.417 109.588Z" fill="#FDF76F" stroke="#E22525" stroke-width="7"/>
</g>
<defs>
<clipPath id="clip0_1_416">
<rect width="440" height="440" fill="white"/>
</clipPath>
</defs>
</svg>
