<svg width="296" height="230" viewBox="0 0 296 216" fill="none" xmlns="http://www.w3.org/2000/svg">
<path d="M52.6961 105.46H245.427L233.441 45.0525L190.204 18.8145V4.036C182.353 -0.325424 164.286 0.0929122 147.6 0.0929122C129.757 0.0929122 113.138 -0.597667 105.867 3.53754V18.8145L65.1613 37.8611L52.6961 105.46Z" fill="#FFDD65"/>
<path d="M252.797 219.148H43.4841C37.1107 219.148 32.3355 213.31 33.6001 207.063L51.5361 118.465C51.874 116.796 52.6371 115.208 53.7421 113.809C57.4985 109.053 65.5303 98.2921 69.1796 88.6359C70.175 86.0018 70.8931 81.5843 71.4561 76.4626C72.0314 71.2298 72.4763 64.9215 72.8217 58.2912C73.5127 45.0249 73.8117 30.3325 73.9413 20.0977C74.0122 14.4978 78.5569 9.98801 84.1251 9.98801H92.5422C96.9098 9.98801 100.918 12.8665 102.774 17.1819C105.875 24.3926 110.892 33.8073 118.258 41.4608C125.656 49.148 135.576 55.1984 148.338 55.1984C160.741 55.1984 170.164 49.481 177.065 42.0598C183.919 34.689 188.385 25.5511 191.07 18.2969C192.882 13.4013 197.242 9.98801 201.998 9.98801H212.495C217.966 9.98801 222.449 14.3264 222.633 19.802C222.995 30.5161 223.602 46.3267 224.436 60.4406C224.852 67.4949 225.326 74.1509 225.857 79.5453C226.375 84.8113 226.974 89.2127 227.722 91.5195C229.088 95.7366 231.76 100.188 234.475 104.045C237.219 107.942 240.145 111.423 242.177 113.721C243.524 115.245 244.455 117.032 244.837 118.919L262.681 207.063C263.946 213.31 259.171 219.148 252.797 219.148Z" fill="white" stroke="#383434" stroke-width="5.97601"/>
<path d="M255.5 36.928C245.25 22.3615 238.693 19 224.5 19L231.223 52.2416L241.477 103.78L258.115 183.714C266.481 171.762 280.525 168.027 292.477 176.617C292.477 176.617 282.766 93.3267 280.525 84.7362C278.284 76.1456 264.437 49.6271 255.5 36.928Z" fill="#FFDD65" stroke="#383434" stroke-width="5.97601" stroke-linecap="round" stroke-linejoin="round"/>
<path d="M40.4766 36.928C50.7271 22.3615 57.2841 19 71.4771 19L64.7541 52.2416L54.5 103.78L37.8621 183.714C29.4957 171.762 15.452 168.027 3.5 176.617C3.5 176.617 13.211 93.3267 15.452 84.7362C17.693 76.1456 31.5402 49.6271 40.4766 36.928Z" fill="#FFDD65" stroke="#383434" stroke-width="5.97601" stroke-linecap="round" stroke-linejoin="round"/>
<path d="M234.101 118.078C234.298 117.273 233.805 116.462 233 116.265C232.195 116.069 231.383 116.562 231.187 117.367L234.101 118.078ZM62.398 117.984C62.9784 121.27 63.7896 125.81 66.3184 129.503C68.9382 133.33 73.2817 136.097 80.5005 136.097V133.097C74.1926 133.097 70.8112 130.755 68.7938 127.808C66.6856 124.729 65.9475 120.832 65.3523 117.462L62.398 117.984ZM80.5005 136.097C93.7067 136.097 103.45 131.68 113.376 127.52C123.304 123.36 133.53 119.394 148.058 119.8L148.142 116.802C132.947 116.376 122.23 120.557 112.217 124.753C102.202 128.95 93.0074 133.097 80.5005 133.097V136.097ZM148.058 119.8C162.619 120.208 171.838 124.181 181.064 128.139C190.344 132.121 199.646 136.097 214.077 136.097V133.097C200.296 133.097 191.471 129.341 182.247 125.382C172.968 121.401 163.306 117.226 148.142 116.802L148.058 119.8ZM214.077 136.097C221.895 136.097 226.675 132.891 229.608 128.923C232.47 125.052 233.501 120.541 234.101 118.078L231.187 117.367C230.57 119.896 229.647 123.823 227.195 127.14C224.814 130.362 220.92 133.097 214.077 133.097V136.097Z" fill="#DADADA"/>
</svg>
