<svg width="104" height="21" viewBox="0 0 104 21" fill="none" xmlns="http://www.w3.org/2000/svg">
<path d="M8.38608 17.0517C14.8797 13.8185 22.2648 9.05112 39.0773 16.4594C39.2302 16.5268 39.4157 16.5042 39.5278 16.3779C40.297 15.512 41.8604 12.8234 41.0624 11.5787C31.9756 4.96453 12.6839 5.50442 7.83497 16.5544C7.68157 16.904 8.04075 17.2236 8.38608 17.0517Z" fill="#383434"/>
<path d="M95.6474 16.9224C89.162 13.7703 82.571 8.36725 65.9516 16.1633C65.8003 16.2343 65.6134 16.2165 65.4972 16.0938C64.7286 15.2824 63.2416 12.8679 64.0851 11.4467C72.2877 4.57509 91.1017 5.44316 96.1853 16.4186C96.3457 16.765 95.9943 17.0911 95.6474 16.9224Z" fill="#383434"/>
</svg>
