<svg width="110" height="25" viewBox="0 0 110 25" fill="none" xmlns="http://www.w3.org/2000/svg">
<path d="M101.157 23.5891C91.0685 16.6131 69.9376 16.7489 64.6504 20.0683C64.3626 20.249 63.9389 20.105 63.8565 19.7754C63.4507 18.1508 62.7686 15.4172 64.2259 14.6198C72.6484 10.011 92.1929 11.7392 101.798 18.591C102.306 18.9533 102.001 22.127 101.703 23.4059C101.644 23.6599 101.372 23.7375 101.157 23.5891Z" fill="#383434"/>
<path d="M9.32401 23.0074C19.9012 16.7533 40.9029 16.2681 45.9355 19.7802C46.2141 19.9747 46.6424 19.8607 46.7335 19.5334C47.1917 17.8879 47.8598 15.0165 46.4637 14.11C38.4111 8.88158 18.8427 11.6035 8.75004 17.7144C8.2138 18.0391 8.51142 21.4471 8.7803 22.7878C8.8316 23.0435 9.09946 23.1402 9.32401 23.0074Z" fill="#383434"/>
</svg>
