<svg width="158" height="39" viewBox="0 0 158 39" fill="none" xmlns="http://www.w3.org/2000/svg">
<path opacity="0.7" d="M84.0052 11.1769C96.1369 0.363218 123.665 5.92126 130.977 11.1769C129.882 18.1843 125.561 32.0561 119.809 34.1701C113.847 36.3606 106.379 37.6038 95.2113 36.6184C86.7372 35.8706 83.3483 19.1698 84.0052 11.1769Z" fill="#383434"/>
<path opacity="0.7" d="M73.9948 10.1769C61.8631 -0.636782 34.3351 4.92126 27.0229 10.1769C28.118 17.1843 32.4385 31.0561 38.1914 33.1701C44.1528 35.3606 51.6207 36.6038 62.7887 35.6184C71.2628 34.8706 74.6517 18.1698 73.9948 10.1769Z" fill="#383434"/>
<path fill-rule="evenodd" clip-rule="evenodd" d="M127.654 11.6744C127.009 14.7984 125.874 18.7767 124.374 22.3464C123.456 24.5305 122.445 26.4582 121.394 27.9162C120.301 29.4309 119.387 30.1287 118.774 30.3541C113.292 32.3685 106.277 33.583 95.4751 32.6299C94.3939 32.5345 93.265 31.9294 92.0961 30.5291C90.9123 29.1111 89.8635 27.071 89.0191 24.6328C87.5068 20.2659 86.8499 15.2161 86.9327 11.6516C92.1546 7.69606 100.504 6.5031 109.075 7.14254C113.524 7.47444 117.827 8.28717 121.431 9.32234C124.025 10.0674 126.138 10.894 127.654 11.6744ZM131.581 6.99309C129.383 5.68342 126.396 4.50591 123.087 3.55556C119.094 2.40839 114.386 1.52202 109.522 1.15917C101.008 0.524016 91.3329 1.44814 84.369 6.11341C84.2242 6.05365 84.0696 5.99489 83.9047 5.93794C82.8157 5.56179 81.3032 5.27261 79.2285 5.27266C77.1538 5.27271 75.6413 5.56189 74.5524 5.93798C74.2772 6.03305 74.0305 6.13317 73.8103 6.23459C66.8338 1.46416 57.0651 0.51856 48.4783 1.15917C43.6146 1.52203 38.9063 2.40839 34.9128 3.55557C31.6215 4.50104 28.6474 5.67135 26.4527 6.97295L8.51251 2.92744C6.89624 2.56297 5.29053 3.57775 4.92606 5.19402C4.5616 6.8103 5.57638 8.416 7.19265 8.78047L24.4246 12.6663C25.1381 16.1952 26.4028 20.6438 28.0947 24.6706C29.1132 27.0946 30.3292 29.4692 31.7401 31.4257C33.1101 33.3255 34.8937 35.1544 37.1567 35.9859C43.5974 38.3526 51.5182 39.6244 63.0524 38.6067C66.2083 38.3282 68.6808 36.5654 70.5101 34.3742C72.3245 32.2007 73.6708 29.4258 74.6507 26.5963C76.3897 21.5751 77.1715 15.7984 77.0644 11.4611C77.532 11.3634 78.2339 11.2727 79.2286 11.2727C79.9416 11.2726 80.5042 11.3193 80.9379 11.3816C80.8192 15.7277 81.5999 21.5443 83.3495 26.5963C84.3294 29.4258 85.6756 32.2007 87.4901 34.3742C89.3193 36.5654 91.7919 38.3282 94.9477 38.6067C106.482 39.6244 114.403 38.3526 120.843 35.9859C123.106 35.1544 124.89 33.3255 126.26 31.4257C127.671 29.4692 128.887 27.0946 129.905 24.6706C131.59 20.6614 132.851 16.234 133.566 12.7126L152.874 8.79401C154.498 8.46447 155.547 6.88102 155.218 5.25727C154.888 3.63352 153.305 2.58435 151.681 2.91388L131.581 6.99309ZM30.3458 11.6744C30.9908 14.7984 32.1265 18.7767 33.6263 22.3464C34.544 24.5305 35.5552 26.4582 36.6066 27.9162C37.6989 29.4309 38.6127 30.1287 39.2261 30.3541C44.7082 32.3685 51.7233 33.583 62.5251 32.6299C63.6063 32.5345 64.7351 31.9294 65.9041 30.5291C67.0878 29.1111 68.1367 27.071 68.9811 24.6328C70.4934 20.2659 71.1503 15.2161 71.0675 11.6516C65.8456 7.69607 57.4958 6.50311 48.9247 7.14255C44.476 7.47445 40.173 8.28717 36.5694 9.32235C33.9756 10.0674 31.8624 10.8941 30.3458 11.6744Z" fill="#383434"/>
</svg>
