<svg width="156" height="35" viewBox="0 0 156 35" fill="none" xmlns="http://www.w3.org/2000/svg">
<path fill-rule="evenodd" clip-rule="evenodd" d="M54.3506 29.6532C63.8009 28.7324 69.5049 21.9237 68.9082 15.8006C68.3116 9.67744 61.4005 4.09796 51.9502 5.0188C42.4999 5.93964 36.7959 12.7483 37.3925 18.8715C37.9892 24.9946 44.9003 30.5741 54.3506 29.6532ZM72.954 16.6684C73.0009 25.1609 65.1306 32.6217 54.7385 33.6344C43.837 34.6966 34.2885 28.2607 33.4114 19.2594C33.2745 17.8542 33.357 16.4696 33.6352 15.1293C33.4678 14.9942 33.2435 14.8253 32.9762 14.6522C32.3972 14.2775 31.7009 13.9386 30.9926 13.8147L9.96416 19.4915C9.57044 19.5977 9.15043 19.5391 8.80084 19.3292C8.45125 19.1192 8.20223 18.7759 8.11113 18.3784L7.78122 16.939C7.59676 16.1342 8.09738 15.3316 8.90129 15.1434L9.23776 16.5802C8.90129 15.1434 8.90139 15.1434 8.90156 15.1433L8.90228 15.1431L8.90504 15.1425L8.91578 15.14L8.95787 15.1301L9.12146 15.092C9.26471 15.0586 9.47485 15.0098 9.74295 14.9478C10.2791 14.8237 11.0473 14.6467 11.976 14.4351C13.833 14.0121 16.334 13.45 18.9068 12.8948C21.4772 12.34 24.1302 11.7898 26.2877 11.3916C27.3649 11.1929 28.333 11.0293 29.1118 10.9223C29.8255 10.8242 30.5539 10.7461 31.0432 10.7953C32.5042 10.9419 33.7637 11.5884 34.6062 12.1337L34.6094 12.1358C37.2276 6.29803 43.6671 1.80696 51.5623 1.03766C60.9012 0.127668 69.2472 4.72033 71.9993 11.7146C72.317 11.6173 72.7164 11.5056 73.1867 11.395C74.3943 11.1109 76.0927 10.8286 78.0852 10.8287C80.0772 10.8288 81.7786 11.1111 82.9887 11.3947C83.4027 11.4917 83.7621 11.5896 84.0593 11.6777C86.8262 4.7042 95.1592 0.129268 104.482 1.03766C112.526 1.82147 119.059 6.46879 121.579 12.4675C121.726 12.3603 121.889 12.2477 122.065 12.1337C122.907 11.5884 124.167 10.9419 125.628 10.7953C126.117 10.7461 126.845 10.8242 127.559 10.9223C128.338 11.0293 129.306 11.1929 130.383 11.3916C132.541 11.7898 135.194 12.34 137.764 12.8948C140.337 13.45 142.838 14.0121 144.695 14.4351C145.624 14.6467 146.392 14.8237 146.928 14.9478C147.196 15.0098 147.406 15.0586 147.549 15.092L147.713 15.1301L147.755 15.14L147.766 15.1425L147.769 15.1431L147.769 15.1433C147.77 15.1434 147.77 15.1434 147.433 16.5802L147.77 15.1434C148.574 15.3316 149.074 16.1342 148.89 16.939L148.56 18.3784C148.469 18.7759 148.22 19.1192 147.87 19.3292C147.521 19.5391 147.101 19.5977 146.707 19.4915L125.678 13.8147C124.97 13.9386 124.274 14.2775 123.695 14.6522C123.382 14.8545 123.129 15.0512 122.956 15.1948C122.87 15.2662 122.806 15.3232 122.766 15.3598C122.746 15.378 122.732 15.391 122.724 15.398L122.718 15.4036C122.649 15.4715 122.574 15.5313 122.495 15.583C122.703 16.7812 122.754 18.0122 122.633 19.2594C121.756 28.2607 112.207 34.6966 101.306 33.6344C90.8923 32.6197 83.0111 25.1306 83.0904 16.6166C83.0416 16.5994 82.9766 16.5773 82.8961 16.5513C82.6643 16.4764 82.3074 16.3705 81.848 16.2628C80.9248 16.0465 79.6129 15.8288 78.0848 15.8287C76.5571 15.8286 75.2497 16.0462 74.3315 16.2622C73.8744 16.3697 73.5199 16.4753 73.2901 16.55C73.1754 16.5873 73.0923 16.6167 73.0436 16.6344C73.0193 16.6433 73.0037 16.6492 72.997 16.6517L72.9947 16.6526C72.9811 16.658 72.9676 16.6633 72.954 16.6684ZM101.693 29.6532C92.2431 28.7324 86.5391 21.9237 87.1358 15.8006C87.7324 9.67744 94.6435 4.09796 104.094 5.0188C113.544 5.93964 119.248 12.7483 118.651 18.8715C118.055 24.9946 111.144 30.5741 101.693 29.6532Z" fill="#383434"/>
</svg>
