<svg width="102" height="42" viewBox="0 0 102 42" fill="none" xmlns="http://www.w3.org/2000/svg">
<path d="M75.3267 34.6523L75.2761 34.695L75.2285 34.741C74.581 35.3652 73.482 36.0236 71.8824 36.6447C70.3069 37.2563 68.367 37.7858 66.152 38.2185C61.7228 39.0836 56.3507 39.5316 50.9275 39.5398C45.5045 39.548 40.1031 39.1163 35.6153 38.2548C31.0861 37.3853 27.866 36.1449 26.3279 34.7803C24.7202 32.9002 23.1221 29.5739 21.9462 25.4369C20.8667 21.6386 20.1926 17.3299 20.1557 13.1688C31.9701 17.2393 41.5053 19.1757 50.9822 19.0951C60.4323 19.0147 69.6877 16.9293 80.9381 13.1481C80.8499 17.0551 80.105 21.7396 79.0313 25.8483C78.441 28.1073 77.7648 30.1395 77.0721 31.7334C76.3421 33.413 75.7089 34.3298 75.3267 34.6523Z" fill="white" stroke="#383434" stroke-width="3.99569"/>
<path fill-rule="evenodd" clip-rule="evenodd" d="M84.672 9.68277C84.4967 8.87204 83.7303 8.33013 82.9075 8.4351L78.197 9.03606C76.7514 9.22048 76.2866 11.0851 77.4765 11.9265L83.1906 15.967C84.3805 16.8084 85.9835 15.7487 85.6755 14.3243L84.672 9.68277ZM16.4231 10.3018C16.5652 9.45492 17.3511 8.87167 18.2029 8.981L23.1584 9.61707C24.5855 9.80025 25.0628 11.6283 23.9074 12.4858L18.1251 16.777C16.9697 17.6345 15.3583 16.6481 15.5964 15.2291L16.4231 10.3018ZM39.1771 28.7073C32.0315 27.1924 22.4469 23.9117 20.7246 21.7588C20.9244 23.4903 23.0022 26.9132 24.9201 29.1508C24.9201 27.8918 28.4608 28.2721 32.5747 28.7139H32.5747C34.7477 28.9472 37.0805 29.1977 39.136 29.2329C39.5085 29.2393 39.5416 28.7845 39.1771 28.7073ZM60.7291 28.7153C68.1059 27.2041 78.8533 23.9155 80.5787 21.7588C80.3789 23.4903 78.3012 26.9132 76.3832 29.1508C76.3832 27.8797 72.3061 28.2796 67.7471 28.7267C65.3831 28.9585 62.8896 29.203 60.7679 29.2339C60.3953 29.2393 60.3641 28.7901 60.7291 28.7153Z" fill="#383434"/>
</svg>
