<svg width="148" height="107" viewBox="0 0 148 97" fill="none" xmlns="http://www.w3.org/2000/svg">
<path fill-rule="evenodd" clip-rule="evenodd" d="M54.1165 103.013C62.1625 103.968 93.8975 105.029 102.4 103.013C110.902 100.998 139.755 87.0647 139.755 87.0647C138.536 75.572 142.327 39.0269 144.254 20.4501C144.878 14.4364 145.307 10.3058 145.307 9.51741C145.307 6.93848 142.799 4.02549 141.546 2.89136L132.91 79.2862L112.104 87.0647V66.5118C103.732 64.2905 84.4667 63.6023 84.4667 63.6023C79.5054 66.4502 76.8263 67.12 70.5948 63.6023L43.1706 66.5118V87.0647L15.8229 81.1543L6.46328 2.89136C5.08592 3.8102 2.33118 6.42179 2.33118 9.51741C2.33118 10.4206 2.85199 15.8449 3.58973 23.5284C5.38058 42.1803 8.44967 74.145 8.44967 87.0647C8.44967 87.0647 46.0705 102.059 54.1165 103.013ZM52.0104 74.9542V88.6303L69.6143 93.5697L79.3679 90.9477L89.6555 93.5697L104.626 88.6303V73.1811C100.939 71.3381 95.0334 72.848 89.0933 74.3666C85.0751 75.3939 81.0412 76.4252 77.6685 76.4252C73.8811 76.4252 70.084 75.6139 66.502 74.8486C60.8365 73.6381 55.7092 72.5426 52.0104 74.9542Z" fill="#6A4C1E"/>
<path d="M139.755 87.0647L140.607 88.8297C141.352 88.4699 141.791 87.6809 141.704 86.8581L139.755 87.0647ZM144.254 20.4501L142.305 20.2478L142.305 20.2478L144.254 20.4501ZM141.546 2.89136L142.861 1.43786C142.316 0.944696 141.54 0.798025 140.853 1.05796C140.165 1.3179 139.681 1.94074 139.598 2.6712L141.546 2.89136ZM132.91 79.2862L133.596 81.1221C134.287 80.8638 134.775 80.2394 134.858 79.5064L132.91 79.2862ZM112.104 87.0647H110.144C110.144 87.7072 110.459 88.309 110.987 88.6752C111.515 89.0414 112.189 89.1257 112.791 88.9007L112.104 87.0647ZM112.104 66.5118H114.064C114.064 65.6229 113.466 64.8453 112.607 64.6173L112.104 66.5118ZM84.4667 63.6023L84.5367 61.6436C84.1708 61.6305 83.8085 61.7202 83.4909 61.9025L84.4667 63.6023ZM70.5948 63.6023L71.5583 61.8955C71.2029 61.6949 70.7938 61.6102 70.388 61.6533L70.5948 63.6023ZM43.1706 66.5118L42.9639 64.5627C41.967 64.6685 41.2106 65.5094 41.2106 66.5118H43.1706ZM43.1706 87.0647L42.7566 88.9805C43.3357 89.1057 43.9404 88.9622 44.4015 88.5901C44.8626 88.218 45.1307 87.6573 45.1307 87.0647H43.1706ZM15.8229 81.1543L13.8768 81.3871C13.9761 82.2175 14.5914 82.8935 15.4089 83.0701L15.8229 81.1543ZM6.46328 2.89136L8.40944 2.65861C8.32854 1.98217 7.9022 1.39626 7.28345 1.11118C6.6647 0.826112 5.9423 0.882779 5.37557 1.26084L6.46328 2.89136ZM3.58973 23.5284L5.54078 23.3411L3.58973 23.5284ZM8.44967 87.0647H6.48965C6.48965 87.8671 6.97867 88.5884 7.72401 88.8855L8.44967 87.0647ZM52.0104 88.6303H50.0504C50.0504 89.5089 50.635 90.2801 51.4809 90.5175L52.0104 88.6303ZM52.0104 74.9542L50.9399 73.3124C50.385 73.6742 50.0504 74.2918 50.0504 74.9542H52.0104ZM69.6143 93.5697L69.0848 95.4569C69.4241 95.5521 69.7828 95.554 70.1232 95.4625L69.6143 93.5697ZM79.3679 90.9477L79.852 89.0484C79.526 88.9653 79.184 88.9676 78.8591 89.0549L79.3679 90.9477ZM89.6555 93.5697L89.1714 95.469C89.5336 95.5613 89.9147 95.5482 90.2696 95.431L89.6555 93.5697ZM104.626 88.6303L105.24 90.4917C106.043 90.2266 106.586 89.4762 106.586 88.6303H104.626ZM104.626 73.1811H106.586C106.586 72.4386 106.166 71.76 105.502 71.4279L104.626 73.1811ZM89.0933 74.3666L88.6079 72.4677L88.6079 72.4677L89.0933 74.3666ZM66.502 74.8486L66.9115 72.9318L66.9115 72.9318L66.502 74.8486ZM101.948 101.106C100.028 101.561 96.6229 101.87 92.323 102.039C88.0726 102.206 83.094 102.233 78.113 102.167C68.124 102.035 58.2636 101.531 54.3474 101.067L53.8855 104.96C58.0153 105.449 68.0455 105.954 78.061 106.087C83.0823 106.153 88.1345 106.127 92.4771 105.956C96.7702 105.787 100.521 105.473 102.852 104.92L101.948 101.106ZM139.755 87.0647C138.903 85.2997 138.902 85.2998 138.902 85.2998C138.902 85.2999 138.902 85.3001 138.901 85.3003C138.901 85.3007 138.899 85.3013 138.898 85.3021C138.894 85.3037 138.889 85.3062 138.882 85.3094C138.869 85.316 138.848 85.3259 138.821 85.339C138.767 85.3651 138.686 85.4041 138.58 85.4551C138.368 85.557 138.055 85.7071 137.653 85.8989C136.851 86.2825 135.693 86.8331 134.278 87.5003C131.447 88.835 127.585 90.6348 123.459 92.4967C115.114 96.263 105.973 100.152 101.948 101.106L102.852 104.92C107.328 103.859 116.865 99.7736 125.072 96.0697C129.223 94.1963 133.105 92.3869 135.949 91.0462C137.372 90.3757 138.535 89.8221 139.343 89.4359C139.748 89.2428 140.063 89.0915 140.278 88.9884C140.385 88.9368 140.467 88.8973 140.522 88.8706C140.55 88.8572 140.571 88.8471 140.585 88.8403C140.592 88.8368 140.598 88.8342 140.601 88.8325C140.603 88.8316 140.605 88.8309 140.606 88.8305C140.606 88.8303 140.606 88.8301 140.607 88.83C140.607 88.8298 140.607 88.8297 139.755 87.0647ZM142.305 20.2478C141.342 29.5333 139.91 43.3358 138.871 56.2569C137.839 69.0956 137.173 81.3054 137.806 87.2714L141.704 86.8581C141.118 81.3313 141.738 69.5223 142.779 56.571C143.813 43.7021 145.24 29.9437 146.204 20.6523L142.305 20.2478ZM143.347 9.51741C143.347 9.78859 143.255 10.8892 143.064 12.8325C142.879 14.7089 142.617 17.2388 142.305 20.2478L146.204 20.6523C146.516 17.6477 146.779 15.1054 146.965 13.216C147.144 11.3935 147.267 10.0346 147.267 9.51741H143.347ZM140.231 4.34485C140.75 4.81415 141.577 5.70159 142.258 6.73895C142.969 7.82079 143.347 8.80108 143.347 9.51741H147.267C147.267 7.65482 146.391 5.88914 145.534 4.58622C144.649 3.23882 143.596 2.1027 142.861 1.43786L140.231 4.34485ZM134.858 79.5064L143.493 3.11152L139.598 2.6712L130.962 79.0661L134.858 79.5064ZM112.791 88.9007L133.596 81.1221L132.224 77.4503L111.418 85.2288L112.791 88.9007ZM110.144 66.5118V87.0647H114.064V66.5118H110.144ZM84.4667 63.6023C84.3967 65.5611 84.3967 65.5611 84.3968 65.5611C84.3969 65.5611 84.397 65.5611 84.3972 65.5611C84.3977 65.5612 84.3984 65.5612 84.3995 65.5612C84.4016 65.5613 84.4048 65.5614 84.4092 65.5616C84.418 65.5619 84.4313 65.5624 84.4491 65.563C84.4848 65.5644 84.5383 65.5664 84.6087 65.5692C84.7496 65.5746 84.9583 65.583 85.2274 65.5945C85.7656 65.6174 86.5452 65.6527 87.5074 65.702C89.4327 65.8007 92.0853 65.9551 94.9959 66.1784C100.876 66.6294 107.613 67.3482 111.602 68.4063L112.607 64.6173C108.223 63.4541 101.142 62.7182 95.2957 62.2698C92.3436 62.0434 89.6566 61.8869 87.708 61.7871C86.7333 61.7372 85.9424 61.7014 85.3943 61.678C85.1203 61.6663 84.9069 61.6578 84.7615 61.6521C84.6888 61.6492 84.6331 61.6471 84.5953 61.6457C84.5764 61.645 84.562 61.6445 84.5522 61.6441C84.5473 61.644 84.5435 61.6438 84.541 61.6437C84.5397 61.6437 84.5386 61.6436 84.5379 61.6436C84.5376 61.6436 84.5373 61.6436 84.5371 61.6436C84.5368 61.6436 84.5367 61.6436 84.4667 63.6023ZM69.6313 65.3092C72.8658 67.1351 75.478 68.0534 78.0863 67.9479C80.67 67.8433 82.9407 66.7383 85.4425 65.3022L83.4909 61.9025C81.0315 63.3143 79.482 63.9681 77.9278 64.031C76.3984 64.0929 74.5552 63.5873 71.5583 61.8955L69.6313 65.3092ZM43.3774 68.4609L70.8015 65.5514L70.388 61.6533L42.9639 64.5627L43.3774 68.4609ZM45.1307 87.0647V66.5118H41.2106V87.0647H45.1307ZM15.4089 83.0701L42.7566 88.9805L43.5847 85.149L16.237 79.2386L15.4089 83.0701ZM4.51713 3.1241L13.8768 81.3871L17.7691 80.9216L8.40944 2.65861L4.51713 3.1241ZM4.2912 9.51741C4.2912 8.54784 4.73083 7.52707 5.45211 6.55959C6.16736 5.6002 7.03144 4.86847 7.551 4.52187L5.37557 1.26084C4.51776 1.83309 3.31579 2.86657 2.30933 4.21659C1.30889 5.55852 0.371154 7.39136 0.371154 9.51741H4.2912ZM5.54078 23.3411C5.17174 19.4975 4.85759 16.2257 4.63566 13.8016C4.40753 11.3098 4.2912 9.85347 4.2912 9.51741H0.371154C0.371154 10.0845 0.515232 11.7919 0.731943 14.159C0.954853 16.5938 1.26998 19.8758 1.63868 23.7158L5.54078 23.3411ZM10.4097 87.0647C10.4097 74.0243 7.32567 41.9309 5.54078 23.3411L1.63868 23.7158C3.43549 42.4296 6.48965 74.2656 6.48965 87.0647H10.4097ZM54.3474 101.067C52.5686 100.856 48.9027 99.8115 44.2018 98.2575C39.5762 96.7285 34.1446 94.7741 28.9484 92.8437C23.7552 90.9143 18.8109 89.014 15.1641 87.5957C13.341 86.8867 11.8429 86.2984 10.8009 85.8875C10.28 85.6821 9.87309 85.521 9.59668 85.4114C9.45847 85.3566 9.35289 85.3146 9.28198 85.2864C9.24653 85.2723 9.21974 85.2617 9.20188 85.2546C9.19295 85.251 9.18625 85.2484 9.18182 85.2466C9.1796 85.2457 9.17795 85.245 9.17686 85.2446C9.17632 85.2444 9.17594 85.2442 9.17567 85.2441C9.17543 85.244 9.17533 85.244 8.44967 87.0647C7.72401 88.8855 7.7242 88.8856 7.72453 88.8857C7.72483 88.8858 7.72531 88.886 7.72591 88.8862C7.72712 88.8867 7.72889 88.8874 7.73124 88.8884C7.73592 88.8902 7.74287 88.893 7.75205 88.8967C7.77042 88.904 7.79771 88.9148 7.83369 88.9291C7.90563 88.9577 8.01228 89.0001 8.15159 89.0553C8.43019 89.1658 8.83943 89.3278 9.36287 89.5342C10.4097 89.9471 11.9136 90.5376 13.7432 91.2492C17.4017 92.672 22.3655 94.5799 27.5832 96.5183C32.798 98.4557 38.2802 100.429 42.9714 101.979C47.5874 103.505 51.6413 104.693 53.8855 104.96L54.3474 101.067ZM53.9704 88.6303V74.9542H50.0504V88.6303H53.9704ZM70.1438 91.6826L52.5399 86.7432L51.4809 90.5175L69.0848 95.4569L70.1438 91.6826ZM78.8591 89.0549L69.1055 91.6769L70.1232 95.4625L79.8768 92.8406L78.8591 89.0549ZM90.1396 91.6704L79.852 89.0484L78.8839 92.8471L89.1714 95.469L90.1396 91.6704ZM104.011 86.769L89.0413 91.7084L90.2696 95.431L105.24 90.4917L104.011 86.769ZM102.666 73.1811V88.6303H106.586V73.1811H102.666ZM89.5788 76.2656C92.5799 75.4983 95.4152 74.7766 97.9492 74.4579C100.52 74.1347 102.438 74.2784 103.749 74.9342L105.502 71.4279C103.128 70.2407 100.249 70.2179 97.4602 70.5685C94.6346 70.9238 91.5469 71.7163 88.6079 72.4677L89.5788 76.2656ZM77.6685 78.3852C81.3403 78.3852 85.6386 77.2729 89.5788 76.2656L88.6079 72.4677C84.5115 73.5149 80.7421 74.4652 77.6685 74.4652V78.3852ZM66.0924 76.7654C69.6387 77.5231 73.6392 78.3852 77.6685 78.3852V74.4652C74.1231 74.4652 70.5292 73.7048 66.9115 72.9318L66.0924 76.7654ZM53.0809 76.5961C54.4462 75.706 56.1795 75.3876 58.4199 75.5007C60.6842 75.6149 63.2185 76.1513 66.0925 76.7654L66.9115 72.9318C64.1199 72.3354 61.2578 71.7188 58.6174 71.5856C55.9531 71.4512 53.2735 71.7909 50.9399 73.3124L53.0809 76.5961Z" fill="#3B2607"/>
<path d="M64.5715 83.4839C70.594 84.311 84.6468 84.9728 92.6776 81.0029" stroke="#3B2607" stroke-width="6" stroke-linecap="round" stroke-linejoin="round"/>
</svg>
