<svg width="292" height="187" viewBox="0 0 292 187" fill="none" xmlns="http://www.w3.org/2000/svg">
<path d="M187.919 67.6636C179.767 67.6636 174.096 80.7783 177.353 92.9627C179.723 101.831 182.061 110.492 185.028 114.151C188.653 118.622 197.331 119.543 198.837 119.767C204.177 120.562 212.156 119.279 212.156 122.453C212.156 124.337 205.029 131.024 207.873 134.801C210.717 138.579 215.285 143.558 222.183 143.558C226.931 143.558 233.01 123.52 230.83 114.151C226.804 96.8527 208.093 97.1239 206.016 96.3451C203.939 95.5662 205.738 90.6508 203.61 83.3538C201.368 75.6684 198.123 67.6636 187.919 67.6636Z" fill="#1C974D" stroke="#383434" stroke-width="4" stroke-linecap="round" stroke-linejoin="round"/>
<path d="M132.496 65.3205C118.393 70.9474 124.011 87.2802 126.982 94.8331C129.954 102.386 145.08 118.997 147.675 122.24C150.269 125.483 138.971 141.499 136.606 148.595C134.24 155.691 136.606 160.578 141.35 171.787C142.983 175.647 156.398 177.79 159.935 178.355L160.061 178.376C168.989 179.804 187.305 179.804 191.521 179.804H205.128C205.128 179.804 210.794 157.312 196.493 157.312C177.978 157.312 168.17 152.412 168.17 145.102C168.17 137.792 181.139 128.545 178.678 117.511C175.433 102.959 175.777 48.0516 132.496 65.3205Z" fill="#1C974D" stroke="#383434" stroke-width="4" stroke-linecap="round" stroke-linejoin="round"/>
<path d="M207.359 47.6152C203.172 48.8116 198.881 52.6304 196.144 54.3437C193.115 56.2391 189.659 58.1433 182.773 56.2391C171.878 53.2261 141.44 51.1113 129.631 51.7328C117.821 52.3544 96.0671 35.7279 77.7313 27.6477C59.3956 19.5676 27.2303 14.906 12.7792 18.0137C-1.67185 21.1215 -0.209762 33.0811 9.20567 34.174C20.3727 35.4703 33.4723 40.7121 46.8094 46.7604C61.0873 53.2355 102.749 86.6951 110.674 101.768C118.599 116.84 146.569 129.893 180.443 126.785C214.318 123.677 212.764 100.525 215.406 100.525C218.047 100.525 225.816 89.8028 227.215 84.0535C228.334 79.454 238.039 65.2365 242.752 58.7026C263.848 58.4867 286.377 46.996 288.282 45.6727C289.698 44.6895 289.959 41.5962 289.852 37.9749C289.747 34.4419 290.253 30.2264 289.215 27.337C287.209 21.7538 262.954 9.00112 249.902 2.94094C244.929 0.205912 239.957 4.08054 238.092 6.35973C218.451 6.11111 209.419 33.7598 207.359 47.6152Z" fill="#1C974D"/>
<path d="M216.306 47.6152C219.066 59.8576 232.88 58.8036 242.752 58.7026M242.752 58.7026C263.848 58.4867 286.377 46.996 288.282 45.6727C289.698 44.6895 289.959 41.5962 289.852 37.9749C289.747 34.4419 290.253 30.2264 289.215 27.337C287.209 21.7538 262.954 9.00112 249.902 2.94094C244.929 0.205912 239.957 4.08054 238.092 6.35973C218.451 6.11111 209.419 33.7598 207.359 47.6152C203.172 48.8116 198.881 52.6304 196.144 54.3437C193.115 56.2391 189.659 58.1433 182.773 56.2391C171.878 53.2261 141.44 51.1113 129.631 51.7328C117.821 52.3544 96.0671 35.7279 77.7313 27.6477C59.3956 19.5676 27.2303 14.906 12.7792 18.0137C-1.67185 21.1215 -0.209762 33.0811 9.20566 34.174C20.3727 35.4703 33.4723 40.7121 46.8094 46.7604C61.0873 53.2355 102.749 86.6951 110.674 101.768C118.599 116.84 146.569 129.893 180.443 126.785C214.318 123.677 212.764 100.525 215.406 100.525C218.047 100.525 225.817 89.8028 227.215 84.0535C228.334 79.454 238.039 65.2365 242.752 58.7026Z" stroke="#383434" stroke-width="4" stroke-linecap="round" stroke-linejoin="round"/>
<path d="M194.919 71.6636C186.767 71.6636 181.096 84.7783 184.353 96.9627C186.723 105.831 189.061 114.492 192.028 118.151C195.653 122.622 204.331 123.543 205.837 123.767C211.177 124.562 219.156 123.279 219.156 126.453C219.156 128.337 212.029 135.024 214.873 138.801C217.717 142.579 222.285 147.558 229.183 147.558C233.931 147.558 240.01 127.52 237.83 118.151C233.804 100.853 215.093 101.124 213.016 100.345C210.939 99.5662 212.738 94.6508 210.61 87.3538C208.368 79.6684 205.123 71.6636 194.919 71.6636Z" fill="#1C974D" stroke="#383434" stroke-width="4" stroke-linecap="round" stroke-linejoin="round"/>
<path d="M122.496 70.3206C108.393 75.9475 114.011 92.2804 116.982 99.8332C119.954 107.386 135.08 123.997 137.675 127.24C140.269 130.484 128.971 146.499 126.606 153.595C124.24 160.691 126.606 165.578 131.35 176.787C132.983 180.647 146.398 182.79 149.935 183.356L150.061 183.376C158.989 184.804 177.305 184.804 181.521 184.804H195.128C195.128 184.804 200.794 162.312 186.493 162.312C167.978 162.312 158.17 157.412 158.17 150.102C158.17 142.792 171.139 133.545 168.678 122.511C165.433 107.96 165.777 53.0518 122.496 70.3206Z" fill="#1C974D" stroke="#383434" stroke-width="4" stroke-linecap="round" stroke-linejoin="round"/>
<path d="M226.465 39.9487C223.524 39.9487 220.584 35.0476 219.482 32.5971C213.601 19.1808 234.552 9.62449 238.411 9.99206C242.271 10.3596 247.6 18.8136 247.417 19.3649C247.233 19.9163 245.395 21.9379 245.211 30.3919C245.027 38.8459 230.141 39.9486 226.465 39.9487Z" fill="#033561"/>
<path d="M234.937 31.0571C237.496 31.0571 239.305 29.5697 240.419 28.1194C240.981 27.3885 241.394 26.6347 241.669 26.0054C241.807 25.6903 241.914 25.3964 241.989 25.1418C242.056 24.9175 242.124 24.6336 242.124 24.3738C242.124 24.1166 242.047 23.8994 241.999 23.78C241.943 23.6394 241.871 23.5018 241.797 23.3758C241.65 23.1224 241.453 22.8401 241.23 22.5509C240.783 21.9688 240.176 21.2861 239.509 20.6338C238.844 19.9836 238.092 19.3368 237.349 18.8445C236.654 18.3832 235.788 17.9333 234.937 17.9333C233.562 17.9333 232.067 18.6749 230.945 19.7643C229.8 20.8755 228.902 22.4809 228.902 24.3738C228.902 26.2248 229.696 27.8806 230.805 29.0667C231.899 30.2372 233.406 31.0571 234.937 31.0571Z" fill="#FFDD65" stroke="black" stroke-width="2.19076"/>
<ellipse cx="234.738" cy="24.4953" rx="0.701467" ry="2.95765" fill="#383434"/>
<path d="M289.852 37.9752C286.49 38.8488 280.48 40.2603 277.075 42.8052C271.683 46.8356 259.401 51.1345 239.037 45.6731C238.426 45.5665 236.274 45.0596 235.246 46.1853" stroke="#383434" stroke-width="3" stroke-linecap="round" stroke-linejoin="round"/>
<path d="M267.78 28.2756C271.482 28.7272 276.979 31.1875 271.637 33.0628" stroke="#383434" stroke-width="3" stroke-linecap="round" stroke-linejoin="round"/>
<path fill-rule="evenodd" clip-rule="evenodd" d="M190.199 65.4676C192.344 63.1012 194.781 61.29 196.515 60.0014C196.987 59.651 197.406 59.3392 197.754 59.0654C199.043 58.0495 200.441 56.8097 201.806 55.5978L201.807 55.5975L201.807 55.5973L201.807 55.597L201.808 55.5968C202.679 54.8234 203.538 54.0613 204.348 53.376C205.418 52.4706 206.553 51.7192 207.408 51.1532L207.408 51.1529L207.409 51.1528C208.548 50.3983 209.19 49.9735 208.516 49.9529C206.635 49.8955 203.785 51.7224 201.658 53.376C198.199 56.0664 190.928 60.7482 187.583 61.8044C184.238 62.8605 179.179 63.7405 174.793 61.8044C170.769 60.0277 152.446 56.5819 143.715 56.8003L143.31 56.8104C133.261 57.0633 109.883 57.6514 104.153 50.0112C98.3442 42.2665 87.1549 37.6816 82.855 36.9864C79.0697 36.3744 74.7012 33.5424 70.9321 31.099C68.6766 29.6368 66.6357 28.3138 65.0628 27.6888C61.4656 26.2594 45.0446 21.7345 42.0524 21.7345C41.2927 21.7345 40.1559 21.6435 38.8798 21.5415C35.1293 21.2416 30.175 20.8454 30.0509 22.3775C29.9107 24.1071 34.3289 24.0782 38.5301 24.0507C39.0521 24.0472 39.5707 24.0438 40.0769 24.0438C42.5548 24.0438 43.3219 25.3446 44.152 26.7522C45.1309 28.4121 46.1975 30.2208 50.2605 30.2208C51.2498 30.2208 52.2716 30.1839 53.2895 30.1471H53.2895H53.2895H53.2895C57.9068 29.9804 62.4421 29.8166 63.4941 33.114C64.6302 36.6751 68.2797 44.7938 72.9988 42.2667C77.9239 39.6293 88.3125 40.5068 89.3686 48.0753C90.4246 55.6439 94.6641 64.9714 100.203 67.0782C105.139 68.9555 119.011 65.7893 125.067 63.7405C130.791 61.8044 140.764 60.3963 151.677 61.8044C158.858 62.7309 162.88 67.2206 166.747 71.5371C168.757 73.7805 170.724 75.9771 173.072 77.6024C178.42 81.3048 183.204 74.7706 187.103 69.4454L187.103 69.4453C188.209 67.9351 189.243 66.5222 190.199 65.4676ZM86.5888 48.2527C86.5888 50.5889 85.301 52.4828 83.7125 52.4828C82.1239 52.4828 80.8361 50.5889 80.8361 48.2527C80.8361 45.9165 82.1239 44.0226 83.7125 44.0226C85.301 44.0226 86.5888 45.9165 86.5888 48.2527ZM55.5966 34.6632C56.5339 34.5307 57.2274 33.954 57.1456 33.3751C57.0637 32.7963 56.2376 32.4344 55.3003 32.5669C54.363 32.6994 53.6695 33.2761 53.7513 33.855C53.8331 34.4339 54.6593 34.7957 55.5966 34.6632ZM59.3029 32.0189C59.8623 32.1888 60.0928 33.0608 59.8176 33.9666C59.5425 34.8724 58.866 35.4689 58.3066 35.299C57.7472 35.129 57.5167 34.257 57.7919 33.3513C58.067 32.4455 58.7435 31.849 59.3029 32.0189ZM39.0786 29.0946C40.2637 27.815 40.7078 26.2992 40.0706 25.709C39.4334 25.1189 37.9561 25.6779 36.771 26.9575C35.5859 28.2372 35.1417 29.7529 35.779 30.3431C36.4162 30.9332 37.8935 30.3743 39.0786 29.0946Z" fill="#033561"/>
</svg>
