<svg width="258" height="244" viewBox="0 0 258 244" fill="none" xmlns="http://www.w3.org/2000/svg">
<path d="M123.032 3.82129H136.388C136.388 3.82129 158.856 60.1626 166.608 88.8716C167.355 91.64 167.994 94.3375 168.496 96.9246C169.15 100.301 169.572 103.49 169.698 106.402C169.795 108.652 169.433 110.67 169.433 112.618C157.73 112.618 129.189 126.257 129.189 126.257C129.189 126.257 103.12 112.618 90.4568 112.618C90.457 110.793 89.8405 108.7 89.8715 106.402C89.9102 103.534 90.2821 100.341 90.916 96.9246C91.3933 94.3523 92.0192 91.6535 92.763 88.8716C100.315 60.6293 123.032 3.82129 123.032 3.82129Z" fill="#E225A2"/>
<path d="M89.8715 106.402C89.8405 108.7 90.457 110.793 90.4568 112.618C103.12 112.618 129.189 126.257 129.189 126.257C129.189 126.257 157.73 112.618 169.433 112.618C169.433 110.67 169.795 108.652 169.698 106.402M89.8715 106.402L123.032 79.855H136.388L169.698 106.402M89.8715 106.402C89.9102 103.534 90.2821 100.341 90.916 96.9246M169.698 106.402C169.572 103.49 169.15 100.301 168.496 96.9246M90.916 96.9246L123.032 51.8269H136.388L168.496 96.9246M90.916 96.9246C91.3933 94.3523 92.0192 91.6535 92.763 88.8716M168.496 96.9246C167.994 94.3375 167.355 91.64 166.608 88.8716M92.763 88.8716C100.315 60.6293 123.032 3.82129 123.032 3.82129H136.388C136.388 3.82129 158.856 60.1626 166.608 88.8716M92.763 88.8716L123.032 28.084H136.388L166.608 88.8716" stroke="#C9188D" stroke-width="7"/>
</svg>
