<svg width="258" height="225" viewBox="0 0 258 225" fill="none" xmlns="http://www.w3.org/2000/svg">
<path d="M179.805 104.087C187.065 107.34 190.101 118.317 192.1 137.284C194.099 156.251 193.752 171.194 196.41 173.294C199.067 175.394 202.303 176.029 204.395 173.294C206.487 170.559 207.007 161.205 210.226 150.519C212.391 143.336 216.74 129.645 218.108 124.784C220.061 117.84 220.77 112.525 218.998 106.723C218.184 104.059 216.507 100.881 214.246 97.5757C208.139 88.647 197.777 78.7884 188.693 75.6051C171.891 40.7033 106.68 43.9106 84.4065 52.8743C62.1328 61.838 59.6283 72.6891 55.757 75.6051C51.8498 78.5481 48.313 82.2862 45.4487 86.0449C42.2701 90.2161 39.9195 94.4125 38.8096 97.5757C36.513 104.121 30.6914 113.689 38.8096 135.333C39.9459 137.836 41.2227 141.287 42.5428 145.103C46.3749 156.179 50.5724 170.328 52.7606 173.294C55.6783 177.249 58.5058 176.457 62.2128 175.42L62.3058 175.394C66.0586 174.344 63.5308 158.044 65.4807 145.103C67.4307 132.161 67.7312 126.227 73.9991 118.317C82.2226 110.57 92.7536 105.359 104.461 102.103C129.735 95.0741 154.947 98.7353 179.805 104.087Z" fill="#2F2F1D"/>
<path d="M179.805 104.087C187.065 107.34 190.101 118.317 192.1 137.284C194.099 156.251 193.752 171.194 196.41 173.294C199.067 175.394 202.303 176.029 204.395 173.294C206.487 170.559 207.007 161.205 210.226 150.519M179.805 104.087C154.947 98.7353 129.735 95.0741 104.461 102.103M179.805 104.087C181.502 101.158 183.61 95.3198 184.783 92.0478M179.805 104.087C183.149 105.586 188.693 101.003 199.01 113.689C205.136 121.221 210.226 131.326 210.226 150.519M73.9991 118.317C62.3058 122.32 44.4492 122.846 34.6674 113.689M73.9991 118.317C67.7312 126.227 67.4307 132.161 65.4807 145.103M73.9991 118.317C82.2226 110.57 92.7536 105.359 104.461 102.103M38.8096 97.5757C36.5129 104.121 30.6914 113.689 38.8096 135.333C43.2443 145.103 49.8186 169.306 52.7606 173.294C55.7027 177.282 58.553 176.444 62.3058 175.394C66.0586 174.344 63.5308 158.044 65.4807 145.103M38.8096 97.5757C39.9713 110.698 83.5454 107.706 104.461 102.103M38.8096 97.5757C39.9195 94.4125 42.2701 90.2161 45.4487 86.0449M188.693 75.6051C171.891 40.7033 106.68 43.9106 84.4065 52.8743C62.1328 61.838 59.6283 72.6891 55.757 75.6051M188.693 75.6051C188.693 78.1255 187.852 78.7132 187.265 81.0639M188.693 75.6051C197.777 78.7884 208.139 88.647 214.246 97.5757C216.507 100.881 218.184 104.059 218.998 106.723C220.77 112.525 220.061 117.84 218.108 124.784M65.4807 145.103C58.7506 147.671 51.8127 152.516 42.5428 145.103M210.226 150.519C212.391 143.336 216.74 129.645 218.108 124.784M184.783 92.0478C179.998 84.2833 157.294 81.1489 131.372 82.4832C101.202 84.036 95.2718 95.5202 72.093 91.0605C61.1425 88.9535 50.8263 84.6509 45.4487 86.0449M184.783 92.0478C185.878 88.9917 188.133 85.5682 187.265 81.0639M184.783 92.0478C191.092 89.5619 209.886 102.103 218.108 124.784M45.4487 86.0449C48.3131 82.2862 51.8498 78.5481 55.757 75.6051M187.265 81.0639C184.123 76.1741 178.402 69.9003 168.884 66.7274C154.216 61.838 128.139 56.677 99.3462 66.7274C77.4391 74.3742 64.3209 79.3218 55.757 75.6051" stroke="#080707" stroke-width="7" stroke-linecap="round"/>
</svg>
