<svg width="258" height="244" viewBox="0 0 258 214" fill="none" xmlns="http://www.w3.org/2000/svg">
<path d="M103.353 102.505C115.154 109.085 137.259 113.237 155.543 94.9661C155.543 94.9661 176.152 95.6717 178.78 107.194C178.78 119.727 189.661 124.145 194.502 135.148C199.343 146.15 188.616 147.342 194.502 163.004C198.655 174.056 188.616 186.891 188.616 186.891C188.616 186.891 168.422 208.633 169.941 226.793C171.46 244.953 189.608 247.772 178.78 268.379C167.952 288.985 185.97 299.324 165.009 323.632C168.198 333.22 185.651 326.997 194.502 323.632C209.878 317.786 228.633 291.804 224.094 268.379C219.555 244.953 242.983 233.207 232.266 202.261C225.019 181.338 234.71 167.304 224.094 151.231C216.976 140.454 218.52 119.979 209.794 94.9661C202.814 74.9556 178.78 43.7558 158.388 52.9709C151.062 38.4753 124.154 38.4757 114.188 38.4758L114.092 38.4758C104.203 38.4758 74.9924 38.4758 68.012 58.3798C63.864 70.2074 58.7803 62.3445 47.7275 77.4686C36.6748 92.5928 38.5195 104.597 36.1928 121.466C34.7639 131.825 15.8813 152.199 15.8813 167.304C15.8813 182.41 22.3719 186.883 20.7706 202.261C19.552 213.965 15.8822 220.413 15.8818 234.531C15.8814 248.649 24.6837 259.479 31.1605 268.379C37.4476 277.017 37.2495 284.589 41.2539 295.268C51.7244 323.19 95.2092 340.134 103.353 337.226C111.497 334.318 79.098 311.012 79.098 286.109C79.098 277.52 89.8336 263.094 89.8336 245.644C89.8336 227.483 73.6223 209.705 68.012 202.261C56.1502 186.524 63.7607 180.203 68.012 167.304C72.2633 154.406 57.4287 144.584 63.7607 135.148C68.2753 128.42 71.8533 125.901 71.8533 114.203C71.8533 102.505 89.8336 94.9661 103.353 102.505Z" fill="#F0B84B"/>
<path d="M155.543 94.9661C137.259 113.237 115.154 109.085 103.353 102.505C89.8336 94.9661 71.8533 102.505 71.8533 114.203C71.8533 125.901 68.2753 128.42 63.7607 135.148C57.4287 144.584 72.2633 154.406 68.012 167.304C63.7607 180.203 56.1502 186.524 68.012 202.261C73.6223 209.705 89.8336 227.483 89.8336 245.644C89.8336 263.094 79.098 277.52 79.098 286.109C79.098 311.012 111.497 334.317 103.353 337.226C95.2092 340.134 51.7244 323.19 41.2539 295.268C37.2495 284.589 37.4476 277.017 31.1605 268.379C24.6837 259.479 15.8814 248.649 15.8818 234.531C15.8822 220.413 19.552 213.965 20.7706 202.261C22.3719 186.883 15.8813 182.41 15.8813 167.304C15.8813 152.199 34.7639 131.825 36.1928 121.466C38.5195 104.597 36.6748 92.5928 47.7275 77.4686C58.7803 62.3445 63.864 70.2074 68.012 58.3798C74.9924 38.4758 104.203 38.4758 114.092 38.4758C123.981 38.4758 151.039 38.4285 158.388 52.9709M155.543 94.9661C155.543 94.9661 176.152 95.6717 178.78 107.194C178.78 119.727 189.661 124.145 194.502 135.148C199.343 146.15 188.616 147.342 194.502 163.004C198.655 174.056 188.616 186.891 188.616 186.891C188.616 186.891 168.422 208.633 169.941 226.793C171.46 244.953 189.608 247.772 178.78 268.379C167.952 288.985 185.97 299.324 165.009 323.632C168.198 333.22 185.651 326.997 194.502 323.632C209.878 317.786 228.633 291.804 224.094 268.379C219.555 244.953 242.983 233.207 232.266 202.261C225.019 181.338 234.71 167.304 224.094 151.231C216.976 140.454 218.52 119.979 209.794 94.9661C202.814 74.9556 178.78 43.7558 158.388 52.9709M155.543 94.9661C157.424 93.086 165.425 83.0825 151.81 78.8298C148.8 77.4123 141.277 75.4725 132.184 77.4686M158.388 52.9709C161.825 56.0431 165.416 62.0561 165.009 65.7135M43.1928 255.15C44.6969 269.332 61.8562 281.901 64.4287 299.053M65.7607 230.531C68.5949 233.294 73.413 240.606 70.012 247.755M126.227 58.3798C115.776 56.4523 93.8657 55.2204 89.8336 65.7135M202.559 260.866C214.115 288.052 192.71 302.973 188.616 311.454M178.78 84.24C184.02 87.0964 194.502 95.6863 194.502 107.194M43.1928 147.678C38.8324 155.076 34.3456 162.853 36.1928 173.214C38.339 185.251 46.3151 196.032 41.2539 202.261M202.559 194.522C195.95 199.983 183.907 213.268 188.616 222.718M218.316 213.31C222.587 221.246 221.219 230.531 213.831 234.531" stroke="#B27A0D" stroke-width="7" stroke-linecap="round" stroke-linejoin="round"/>
</svg>
