<svg width="258" height="230" viewBox="0 0 258 230" fill="none" xmlns="http://www.w3.org/2000/svg">
<path d="M54.874 148.773C49.072 152.762 45.612 144.6 44.5543 140.52C43.9143 138.888 39.7476 115.512 40.3944 106.429C44.1611 92.4559 49.056 90.1156 50.9597 85.7637C52.1331 83.0812 52.2621 75.63 58.9872 68.7591C55.3497 61.7972 49.4346 46.9669 54.874 43.3407C58.7301 40.7701 60.5359 41.0848 61.2605 42.0242C59.606 36.5312 58.3613 29.2685 64.3927 25.5826C70.9203 21.5935 77.9917 23.9205 80.7115 25.5826C81.0137 19.3875 83.4313 7.1786 90.6841 7.90388C97.9369 8.62916 106.701 12.1345 110.176 13.7965C111.234 10.1701 115.979 3.00799 126.495 3.37063C137.012 3.73327 148.102 10.4723 152.333 13.7965C154.751 11.6812 160.583 8.08502 164.572 10.6235C169.559 13.7965 171.826 25.5826 175.905 25.5826C179.984 25.5826 189.05 31.022 189.05 35.555V51.9535C191.015 53.9178 194.944 58.5717 194.944 61.4728C194.944 64.3739 193.083 68.819 192.152 70.6789C197.522 77.2311 200.181 78.8487 201.29 80.5912C203.426 83.9481 207.086 90.3867 208.543 97.0025C208.555 97.0531 208.567 97.1045 208.578 97.1568C209.379 100.43 213.392 107.153 213.906 110.114C216.173 123.18 214.523 129.188 211.349 140.52C208.811 149.586 199.825 149.152 197.105 146.735C197.105 135.402 182.631 120.528 174.178 120.528C166.46 120.528 150.756 116.685 140.919 112.685C137.306 111.216 131.529 117.167 126.495 118.295C122.472 119.197 116.28 116.445 111.739 115.533C107.438 114.668 102.25 120.041 95.6708 118.295C73.4591 112.402 64.7979 121.893 61.6733 127.13C58.9872 131.632 62.1266 143.787 54.874 148.773Z" fill="#C2934C"/>
<path d="M61.6733 127.13C58.9872 131.632 62.1266 143.787 54.874 148.773C49.072 152.762 45.612 144.6 44.5543 140.52C43.9143 138.888 39.7476 115.512 40.3944 106.429C44.1611 92.4559 49.056 90.1156 50.9597 85.7637M61.6733 127.13C64.7979 121.893 73.4591 112.402 95.6708 118.295C102.25 120.041 107.438 114.668 111.739 115.533M61.6733 127.13C59.5303 127.454 54.1226 123.841 52.4088 118.295M140.919 112.685C150.756 116.685 166.46 120.528 174.178 120.528M140.919 112.685C145.49 109.224 144.076 102.408 137.812 88.0927M140.919 112.685C137.306 111.216 131.529 117.167 126.495 118.295C122.472 119.197 116.28 116.445 111.739 115.533M174.178 120.528C182.631 120.528 197.105 135.402 197.105 146.735C199.825 149.152 208.811 149.586 211.349 140.52C214.523 129.188 216.173 123.18 213.906 110.114C213.384 107.106 209.25 100.214 208.543 97.0025M174.178 120.528C175.361 119.156 181.109 112.685 177.685 103.459M50.9597 85.7637C52.1331 83.0812 52.2621 75.63 58.9872 68.7591M50.9597 85.7637C50.2044 94.2112 51.3722 106.77 58.9872 110.114M58.9872 68.7591C55.3497 61.7972 49.4346 46.9669 54.874 43.3407C60.3134 39.7145 61.6733 41.8298 61.6733 43.3407M58.9872 68.7591C62.1795 65.4976 66.1011 64.6799 70.8644 61.4728M61.6733 43.3407C59.86 37.7501 57.8652 29.5716 64.3927 25.5826C70.9203 21.5935 77.9917 23.9205 80.7115 25.5826M61.6733 43.3407C60.548 47.6665 60.8071 59.411 70.8644 61.4728M80.7115 25.5826C81.0137 19.3875 83.4313 7.1786 90.6841 7.90388C97.9369 8.62916 106.701 12.1345 110.176 13.7965M80.7115 25.5826C77.7879 30.0073 80.2496 42.907 92.9044 51.9535M110.176 13.7965C111.234 10.1701 115.979 3.00799 126.495 3.37063C137.012 3.73327 148.102 10.4723 152.333 13.7965M110.176 13.7965C108.156 18.6692 100.978 31.2936 111.739 45.076C110.255 48.1329 108.177 55.4361 111.739 60.1933M152.333 13.7965C154.751 11.6812 160.583 8.08502 164.572 10.6235C169.558 13.7965 171.826 25.5826 175.905 25.5826M152.333 13.7965C155.352 19.5516 156.299 37.777 142.341 48.5411M175.905 25.5826C179.984 25.5826 189.05 31.022 189.05 35.555C189.05 39.1814 189.05 46.665 189.05 51.9535C191.015 53.9178 194.944 58.5717 194.944 61.4728C194.944 64.3739 193.083 68.819 192.152 70.6789M175.905 25.5826C176.149 33.1804 174.207 48.7337 164.485 50.1647M192.152 70.6789C197.522 77.2311 200.181 78.8487 201.29 80.5912C203.426 83.9481 207.086 90.3867 208.543 97.0025M192.152 70.6789C187.038 64.438 180.954 62.6664 169.917 57.2708M192.152 70.6789C192.838 74.9309 194.759 86.2295 189.05 88.0927M83.4409 58.9339C79.209 64.9671 71.9821 73.1076 83.4409 88.0927M83.4409 58.9339C84.8324 58.3139 91.4167 52.5247 92.9044 51.9535M83.4409 58.9339C78.7202 61.0375 74.5407 58.9977 70.8644 61.4728M169.917 57.2708C173.639 65.892 182.642 73.8367 164.485 92.3849M169.917 57.2708C168.649 56.6509 165.846 50.7361 164.485 50.1647M208.543 97.0025C209.496 100.802 206.399 109.581 194.944 114.295M111.739 115.533C109.149 111.143 95.6709 91.6215 122.235 74.9631M92.9044 51.9535C103.302 47.9613 110.931 43.4673 126.495 43.3407C132.81 43.2894 137.01 47.7391 142.341 48.5411M142.341 48.5411C150.163 49.7181 158.571 47.6818 164.485 50.1647" stroke="#383434" stroke-width="5" stroke-linecap="round" stroke-linejoin="round"/>
</svg>
